<svg width="200.00000000000003" height="120" xmlns="http://www.w3.org/2000/svg">

 <g>
  <title>Layer 1</title>
  <g stroke="null">
   <g stroke="null" transform="translate(40 0) scale(0.234375 0.234375)">
    <path stroke="null" fill="#92DBEF" d="m664.8563,461.16223c0,23.07871 -21.84949,41.78771 -48.80256,41.78771l-727.99908,0c-26.95307,0 -48.80256,-18.71038 -48.80256,-41.78771l0,-403.92576c0,-23.07871 21.84949,-41.78633 48.80256,-41.78633l727.99908,0c26.95469,0 48.80256,18.709 48.80256,41.78633l0,403.92576l0,0z"/>
    <path stroke="null" fill="#202121" opacity="0.15" d="m-126.05157,461.16223l0,-403.92576c0,-23.07871 21.85271,-41.78633 48.80579,-41.78633l-34.70118,0c-26.95146,0 -48.80095,18.70762 -48.80095,41.78633l0,403.92576c0,23.07871 21.84949,41.78771 48.80256,41.78771l34.70118,0c-26.95307,0 -48.8074,-18.71038 -48.8074,-41.78771z"/>
    <path stroke="null" fill="#263B80" d="m375.30626,110.74025c-18.09234,-17.70666 -51.69218,-26.55377 -98.20981,-26.55377l-129.23125,0c-7.75778,0 -15.50588,6.64362 -18.09234,13.27205l-51.69218,289.88799c0,6.64776 5.17131,11.06442 10.33134,11.06442l80.1207,0l20.67719,-108.42686l0,4.42632c2.58969,-6.645 10.33457,-13.27481 18.09557,-13.27481l38.77276,0c74.94777,0 131.79513,-26.55377 149.8907,-99.58803l0,-6.6381c-2.58324,0 -2.58324,0 0,0c2.58808,-28.76003 -2.58163,-46.46668 -20.66268,-64.1692"/>
    <path stroke="null" fill="#232C65" d="m395.97055,181.54755l0,-6.6381c0.01774,-0.21952 0.02903,-0.42386 0.04515,-0.642c-4.59565,-2.73504 -8.90105,-4.64308 -12.19217,-5.88013c-15.69293,-5.55154 -31.74061,-6.59806 -39.14847,-6.75683l-0.0387,-0.02761l-37.69077,0c0,0 0.03225,0.01657 0.04838,0.02623l-79.06128,0c-13.44187,0.41833 -17.14741,9.69759 -18.11814,13.73457l-20.60302,114.62178l0,2.71985l0,1.70509c2.58969,-6.645 10.33457,-13.27481 18.09557,-13.27481l38.77276,0c74.94777,0 131.79513,-26.55515 149.8907,-99.58803z"/>
    <path stroke="null" fill="#139AD6" d="m421.36111,202.33717c-5.8405,-13.7967 -16.17507,-22.61206 -25.34379,-28.07109c-0.01774,0.21814 -0.02903,0.42247 -0.04515,0.642l0,6.6381c-18.09557,73.03288 -74.94293,99.58803 -149.8907,99.58803l-38.77276,0c-7.761,0 -15.50588,6.62843 -18.09557,13.27481l0,-1.70647c-0.29509,0.56606 -0.5676,1.13626 -0.79013,1.70647l-14.60126,76.27599l-5.28741,27.72593l-0.01935,0l-5.93242,30.98423c0,4.42356 2.58808,8.84021 10.33295,8.84021l64.42454,0c12.96134,0 17.03292,-8.63312 18.28423,-13.28448l0.54664,-2.88967l0,-0.00138l12.37116,-65.69618c0,0 1.61251,-15.48935 19.26141,-15.48935l6.59355,0c64.6132,0 116.30377,-22.12469 129.2248,-88.50843c3.59267,-18.50742 3.41529,-35.92139 -2.26074,-50.02872z"/>
   </g>
  </g>
 </g>
</svg>