<?xml version="1.0" encoding="UTF-8" standalone="no"?>
<!-- Created with Inkscape (http://www.inkscape.org/) -->

<svg
   width="200"
   height="120"
   viewBox="0 0 52.916666 31.75"
   version="1.1"
   id="svg1"
   xml:space="preserve"
   xmlns="http://www.w3.org/2000/svg"
   xmlns:svg="http://www.w3.org/2000/svg"><defs
     id="defs1" /><g
     id="layer1"><g
       id="g1"
       transform="matrix(0.03307292,0,0,0.03071632,10.463871,0.35922911)"><path
         d="m 1023.795,853.64 v 6.348 A 163.807,163.807 0 0 1 859.988,1023.795 H 163.808 A 163.807,163.807 0 0 1 0,859.988 V 163.808 A 163.807,163.807 0 0 1 163.807,0 h 696.181 a 163.807,163.807 0 0 1 163.807,163.807 z"
         fill="#009fe9"
         p-id="1470"
         id="path1" /><path
         d="M 844.836,648.267 C 803.884,633.934 749.213,613.458 687.99,591.139 A 949.058,949.058 0 0 0 778.084,368.566 H 573.325 V 307.14 h 245.711 v -43.41 l -245.71,2.458 V 143.33 H 472.173 c -18.223,0 -21.704,20.476 -21.704,20.476 v 102.38 h -245.71 v 40.952 h 245.71 v 61.427 H 245.712 v 40.952 H 655.23 A 805.522,805.522 0 0 1 590.321,557.763 C 461.937,514.968 324.135,480.159 236.088,502.683 a 213.564,213.564 0 0 0 -112.003,63.27 c -95.418,116.917 -26.21,294.034 175.274,294.034 119.989,0 236.087,-67.366 325.771,-177.73 134.322,65.932 398.666,176.297 398.666,176.297 V 701.3 c 0,0 -32.352,-4.095 -178.96,-53.033 z m -563.702,144.97 c -158.893,0 -204.759,-124.699 -126.336,-194.112 a 191.86,191.86 0 0 1 90.913,-46.276 c 93.575,-10.238 189.811,35.629 293.624,86.614 -74.941,94.598 -166.674,153.774 -258.2,153.774 z"
         fill="#ffffff"
         p-id="1471"
         id="path2" /></g></g></svg>
