<svg width="200.00000000000003" height="120" xmlns="http://www.w3.org/2000/svg">

 <g>
  <title>Layer 1</title>
  <g stroke="null">
   <!-- Generator: Sketch 48.2 (47327) - http://www.bohemiancoding.com/sketch -->
   <desc stroke="null">Created with Sketch.</desc>

   <g stroke="null" fill-rule="evenodd" fill="none" id="svg_57">
    <g stroke="null" fill-rule="nonzero" id="svg_58">
     <rect stroke="null" rx="40" height="116.99522" width="199.49256" y="3.00241" x="1.00373" fill="#FFFFFF" id="svg_60"/>
     <path stroke="null" fill="#D10429" id="svg_59" d="m54.68308,16.66427l37.87531,0c5.28493,0 8.58801,4.07531 7.34935,9.05912l-17.64395,71.40869c-1.23865,4.98381 -6.55111,9.05912 -11.83603,9.05912l-37.87531,0c-5.28493,0 -8.58801,-4.07531 -7.34935,-9.05912l17.64395,-71.40869c1.23865,-5.00977 6.52358,-9.05912 11.80851,-9.05912l0.02752,0z"/>
     <path stroke="null" fill="#022E64" id="Shape" d="m89.24596,16.66427l43.57312,0c5.28493,0 2.8902,4.07531 1.65154,9.05912l-17.64395,71.40869c-1.23865,4.98381 -0.85329,9.05912 -6.13822,9.05912l-43.57312,0c-5.31245,0 -8.58801,-4.07531 -7.32182,-9.05912l17.64395,-71.40869c1.23865,-5.00977 6.52358,-9.05912 11.83603,-9.05912l-0.02753,0z"/>
     <path stroke="null" fill="#076F74" id="Shape" d="m131.28966,16.66427l37.87531,0c5.28493,0 8.58801,4.07531 7.34935,9.05912l-17.64395,71.40869c-1.23865,4.98381 -6.55111,9.05912 -11.83603,9.05912l-37.87531,0c-5.31245,0 -8.58801,-4.07531 -7.34935,-9.05912l17.64395,-71.40869c1.23865,-5.00977 6.52358,-9.05912 11.80851,-9.05912l0.02752,0z"/>
     <path stroke="null" fill="#FEFEFE" id="Shape" d="m124.92978,83.98359l3.57834,0l1.01845,-3.24467l-3.55081,0l-1.04598,3.24467zm2.86267,-8.92933l-1.23865,3.84169c0,0 1.34876,-0.64894 2.09195,-0.85659c0.74319,-0.15575 1.84422,-0.28553 1.84422,-0.28553l0.8533,-2.67361l-3.57834,0l0.02753,-0.02596zm1.78917,-5.50296l-1.1836,3.68594c0,0 1.32123,-0.57106 2.06442,-0.75276c0.74319,-0.1817 1.84422,-0.23362 1.84422,-0.23362l0.8533,-2.67361l-3.55081,0l-0.02753,-0.02596zm7.89987,0l-4.62431,14.40633l1.23865,0l-0.9634,2.9851l-1.23865,0l-0.30278,0.90851l-4.40411,0l0.30278,-0.90851l-8.91832,0l0.88082,-2.75148l0.90835,0l4.67936,-14.63995l0.93587,-2.95914l4.48668,0l-0.46794,1.47957c0,0 1.1836,-0.80468 2.33968,-1.09021c1.12855,-0.28553 7.62461,-0.38936 7.62461,-0.38936l-0.9634,2.93318l-1.54144,0l0.02753,0.02596z"/>
     <path stroke="null" fill="#FEFEFE" id="Shape" d="m139.31858,66.59217l4.78947,0l0.05505,1.68723c-0.02753,0.28553 0.22021,0.41532 0.79824,0.41532l0.9634,0l-0.88082,2.77744l-2.58741,0c-2.22958,0.15575 -3.08287,-0.75276 -3.02782,-1.7651l-0.08258,-3.08892l-0.02752,-0.02596zm0.5895,13.21482l-4.56926,0l0.77072,-2.46595l5.22988,0l0.74319,-2.25829l-5.1473,0l0.88082,-2.77744l14.31334,0l-0.88082,2.77744l-4.81699,0l-0.74319,2.25829l4.81699,0l-0.79824,2.46595l-5.20235,0l-0.93587,1.03829l2.11948,0l0.52299,3.11488c0.05505,0.31149 0.05505,0.51915 0.16515,0.64894c0.1101,0.10383 0.74319,0.15574 1.10103,0.15574l0.63309,0l-0.99092,3.03701l-1.62402,0c-0.24773,0 -0.63309,-0.02596 -1.15608,-0.02596c-0.49546,-0.05192 -0.82577,-0.31149 -1.15608,-0.46723c-0.30278,-0.12979 -0.74319,-0.46723 -0.85329,-1.06425l-0.49546,-3.11488l-2.36721,3.06297c-0.74319,0.96042 -1.76164,1.71319 -3.49576,1.71319l-3.30308,0l0.88082,-2.69956l1.26618,0c0.35783,0 0.68814,-0.12979 0.93587,-0.25957c0.24773,-0.10383 0.46794,-0.20766 0.68814,-0.54511l3.46823,-4.59445zm-49.98025,-6.75648l12.08376,0l-0.88082,2.72552l-4.81699,0l-0.74319,2.31021l4.95462,0l-0.90835,2.80339l-4.92709,0l-1.21113,3.76382c-0.13763,0.41532 1.1836,0.46723 1.65154,0.46723l2.47731,-0.31149l-0.99092,3.11488l-5.56018,0c-0.44041,0 -0.77072,-0.05191 -1.26618,-0.15574c-0.46794,-0.10383 -0.68814,-0.31149 -0.88082,-0.59702c-0.19268,-0.31149 -0.52299,-0.5451 -0.30278,-1.21999l1.59649,-4.98381l-2.75257,0l0.90835,-2.85531l2.75257,0l0.74319,-2.31021l-2.75257,0l0.88082,-2.72552l-0.05505,-0.02596zm8.34872,-4.92685l4.95462,0l-0.90835,2.82935l-6.77131,0l-0.74319,0.59702c-0.33031,0.28553 -0.41289,0.1817 -0.82577,0.38936c-0.38536,0.1817 -1.18361,0.54511 -2.22958,0.54511l-2.17453,0l0.88082,-2.72552l0.66062,0c0.55051,0 0.93587,-0.05192 1.12855,-0.15574c0.22021,-0.12979 0.46794,-0.41532 0.71566,-0.88255l1.23865,-2.1285l4.92709,0l-0.8533,1.55744l0,-0.02596zm9.33834,4.67232c0,0 1.34876,-1.16808 3.66091,-1.53148c0.52299,-0.10383 3.82607,-0.05192 3.82607,-0.05192l0.49546,-1.55744l-6.96399,0l-1.01845,3.1668l0,-0.02596zm6.55111,1.19404l-6.90894,0l-0.41289,1.32383l6.00059,0c0.71567,-0.07787 0.8533,0.02596 0.90835,-0.02596l0.44041,-1.29787l-0.02752,0zm-8.97337,-7.37189l4.21143,0l-0.60556,1.99872c0,0 1.32123,-1.01234 2.2571,-1.37574c0.93587,-0.31149 3.02782,-0.62298 3.02782,-0.62298l6.82636,-0.02596l-2.33968,7.31998c-0.38536,1.24595 -0.8533,2.05063 -1.12855,2.43999c-0.24773,0.3634 -0.55051,0.70085 -1.15608,1.01234c-0.57804,0.28553 -1.10103,0.46723 -1.59649,0.49319c-0.44041,0.02596 -1.15608,0.05191 -2.09195,0.05191l-6.57863,0l-1.84422,5.78849c-0.16515,0.57106 -0.24773,0.85659 -0.13763,1.01234c0.08258,0.12979 0.33031,0.28553 0.63309,0.28553l2.8902,-0.25958l-0.99092,3.1668l-3.24803,0c-1.04598,0 -1.78917,-0.02596 -2.31216,-0.05191c-0.49546,-0.05192 -1.01845,0 -1.37628,-0.25958c-0.30278,-0.25957 -0.77072,-0.59702 -0.74319,-0.93446c0.02752,-0.31149 0.16515,-0.83064 0.38536,-1.55744l5.91802,-18.48164z"/>
     <path stroke="null" fill="#FEFEFE" id="Shape" d="m117.46489,78.26685l-0.38536,1.7651c-0.16515,0.5451 -0.30278,0.96042 -0.74319,1.32382c-0.46794,0.3634 -0.99092,0.75276 -2.2571,0.75276l-2.33968,0.10383l-0.02752,1.97276c-0.02753,0.54511 0.13763,0.49319 0.22021,0.59702c0.1101,0.10383 0.19268,0.12979 0.30278,0.1817l0.74319,-0.05192l2.22958,-0.10383l-0.93587,2.90722l-2.55989,0c-1.78917,0 -3.13793,-0.05192 -3.55081,-0.3634c-0.44041,-0.25958 -0.49546,-0.57106 -0.49546,-1.14212l0.16515,-7.73529l4.10133,0l-0.05505,1.5834l0.99092,0c0.33031,0 0.57804,-0.02596 0.71567,-0.10383c0.13763,-0.07787 0.22021,-0.20766 0.27526,-0.38936l0.41289,-1.24595l3.2205,0l-0.02752,-0.05192zm-58.3502,-38.75001c-0.13763,0.62298 -2.78009,12.07017 -2.78009,12.07017c-0.57804,2.31021 -0.99092,3.97148 -2.36721,5.03573c-0.79824,0.62298 -1.73412,0.90851 -2.80762,0.90851c-1.73411,0 -2.72504,-0.80468 -2.89019,-2.33616l-0.02753,-0.51915c0,0 0.52299,-3.08893 0.52299,-3.11488c0,0 2.75257,-10.43486 3.24803,-11.8106c0.02752,-0.07787 0.02752,-0.12979 0.02752,-0.15574c-5.3675,0.05192 -6.3309,0 -6.38595,-0.07787c-0.02753,0.10383 -0.16516,0.75276 -0.16516,0.75276l-2.80762,11.75868l-0.24773,0.98638l-0.46794,3.27063c0,0.96042 0.19268,1.7651 0.60556,2.41403c1.29371,2.1285 4.95462,2.43999 7.01904,2.43999c2.66999,0 5.17482,-0.54511 6.85389,-1.50553c2.94524,-1.63531 3.71596,-4.20509 4.37658,-6.46338l0.33031,-1.16808c0,0 2.83514,-10.82422 3.3306,-12.22592c0.02753,-0.07787 0.02753,-0.12979 0.05505,-0.15574c-3.90864,0.02596 -5.0372,0 -5.42255,-0.07787l0,-0.02596zm15.70104,21.51685c-1.89927,-0.02596 -2.58741,-0.02596 -4.81699,0.07787l-0.08258,-0.15575c0.19268,-0.80468 0.41289,-1.5834 0.57804,-2.38808l0.27526,-1.09021c0.41289,-1.68723 0.79824,-3.68595 0.8533,-4.28296c0.05505,-0.3634 0.16515,-1.27191 -0.93587,-1.27191c-0.46794,0 -0.93587,0.20766 -1.43134,0.41532c-0.27526,0.90851 -0.79824,3.45233 -1.0735,4.59445c-0.55051,2.43999 -0.57804,2.72552 -0.82577,3.91956l-0.16515,0.15574c-1.95432,-0.02596 -2.64246,-0.02596 -4.89957,0.07787l-0.1101,-0.1817c0.38536,-1.45361 0.74319,-2.90722 1.10103,-4.36083c0.93587,-3.91956 1.1836,-5.42509 1.43134,-7.4238l0.19268,-0.10383c2.20205,-0.28553 2.72504,-0.3634 5.11977,-0.80468l0.19268,0.20766l-0.35783,1.24595c0.41288,-0.23362 0.79824,-0.46723 1.21113,-0.64893c1.12855,-0.51915 2.36721,-0.67489 3.05535,-0.67489c1.04597,0 2.20205,0.28553 2.66999,1.42765c0.44041,1.01234 0.16515,2.25829 -0.44041,4.72424l-0.30278,1.24595c-0.60557,2.75148 -0.71567,3.24467 -1.04598,5.1136l-0.22021,0.15574l0.02753,0.02596zm7.7295,0.00685c-1.15608,0 -1.89927,-0.02596 -2.61494,0c-0.71567,0 -1.40381,0.05192 -2.47731,0.07787l-0.05505,-0.07787l-0.05505,-0.10383c0.30278,-1.03829 0.44041,-1.4017 0.60556,-1.7651c0.13763,-0.3634 0.27526,-0.72681 0.55051,-1.79106c0.33031,-1.37574 0.55051,-2.33616 0.68814,-3.19275c0.16516,-0.80468 0.24773,-1.50553 0.35783,-2.31021l0.08258,-0.05191l0.08258,-0.07787c1.15608,-0.15575 1.87174,-0.25958 2.61494,-0.3634c0.74319,-0.10383 1.51391,-0.23362 2.69751,-0.44128l0.05505,0.10383l0.02753,0.10383c-0.22021,0.85659 -0.44041,1.71319 -0.66062,2.56978c-0.22021,0.85659 -0.44041,1.71319 -0.63309,2.56978c-0.41289,1.81702 -0.60556,2.49191 -0.68814,2.9851c-0.1101,0.46723 -0.13763,0.70085 -0.30278,1.63531l-0.1101,0.07787l-0.1101,0.07787l-0.05505,-0.02596zm12.21982,-6.37758c-0.08258,0.46723 -0.52299,2.20638 -1.10103,2.93318c-0.41289,0.5451 -0.88082,0.88255 -1.43134,0.88255c-0.16515,0 -1.10103,0 -1.12855,-1.32382c0,-0.64893 0.13763,-1.32383 0.30278,-2.05063c0.49546,-2.10255 1.10103,-3.84169 2.61494,-3.84169c1.1836,0 1.26618,1.29787 0.74319,3.40042zm4.98214,0.20766c0.66062,-2.75148 0.13763,-4.04935 -0.49546,-4.82807c-0.99092,-1.19404 -2.75257,-1.5834 -4.56926,-1.5834c-1.10103,0 -3.68844,0.10383 -5.72534,1.86893c-1.45886,1.27191 -2.147,3.01105 -2.53236,4.67232c-0.41288,1.68723 -0.88082,4.72424 2.09195,5.86636c0.90835,0.3634 2.22958,0.46723 3.08287,0.46723c2.17453,0 4.40411,-0.57106 6.08317,-2.23233c1.29371,-1.34978 1.87175,-3.37446 2.09195,-4.23105l-0.02753,0zm46.39719,6.47816c-2.31216,-0.02596 -2.97277,-0.02596 -5.09225,0.07787l-0.13763,-0.15574c0.57804,-2.05063 1.15608,-4.12722 1.67907,-6.20381c0.66062,-2.69956 0.82577,-3.84169 1.04597,-5.42509l0.16516,-0.12979c2.28463,-0.31149 2.91772,-0.38936 5.31245,-0.80468l0.05505,0.1817c-0.44041,1.71319 -0.85329,3.40042 -1.2937,5.08764c-0.88082,3.55616 -1.18361,5.37317 -1.51391,7.2421l-0.22021,0.15575l0,-0.02596z"/>
     <path stroke="null" fill="#FEFEFE" id="Shape" d="m142.81898,55.01033c-0.1101,0.44127 -0.55051,2.20638 -1.12855,2.93318c-0.38536,0.51915 -1.32123,0.85659 -1.84422,0.85659c-0.16515,0 -1.0735,0 -1.12855,-1.29787c0,-0.64893 0.13763,-1.32382 0.30278,-2.05063c0.49546,-2.05063 1.10103,-3.78977 2.61494,-3.78977c1.1836,0 1.70659,1.27191 1.1836,3.37446l0,-0.02596zm4.54173,0.20766c0.66062,-2.75148 -2.0369,-0.23362 -2.44978,-1.14212c-0.66062,-1.42765 -0.24773,-4.28296 -2.8902,-5.24339c-1.01845,-0.38936 -3.41318,0.10383 -5.45008,1.86893c-1.43134,1.24595 -2.147,2.9851 -2.53236,4.64637c-0.41288,1.66127 -0.88082,4.72424 2.06443,5.78849c0.93587,0.38936 1.78917,0.49319 2.64246,0.44127c2.97277,-0.15574 5.22988,-4.38679 6.90894,-6.04806c1.29371,-1.32382 1.51391,0.49319 1.70659,-0.31149zm-34.56345,5.8157c-1.89927,-0.02596 -2.55989,-0.02596 -4.78947,0.07787l-0.08258,-0.15575c0.19268,-0.80468 0.41289,-1.5834 0.60556,-2.38808l0.24773,-1.09021c0.41288,-1.68723 0.82577,-3.68595 0.85329,-4.28296c0.05505,-0.3634 0.16516,-1.27191 -0.90835,-1.27191c-0.46794,0 -0.9634,0.20766 -1.43134,0.41532c-0.24773,0.90851 -0.79824,3.45233 -1.0735,4.59445c-0.52299,2.43999 -0.57804,2.72552 -0.82577,3.91956l-0.16515,0.15574c-1.95432,-0.02596 -2.64246,-0.02596 -4.89957,0.07787l-0.1101,-0.1817c0.38536,-1.45361 0.74319,-2.90722 1.10103,-4.36083c0.93587,-3.91956 1.15608,-5.42509 1.43134,-7.4238l0.16515,-0.10383c2.20205,-0.28553 2.75257,-0.3634 5.11977,-0.80468l0.19268,0.20766l-0.33031,1.24595c0.38536,-0.23362 0.79824,-0.46723 1.1836,-0.64893c1.12855,-0.51915 2.36721,-0.67489 3.05535,-0.67489c1.04597,0 2.17453,0.28553 2.66999,1.42765c0.44041,1.01234 0.13763,2.25829 -0.46794,4.72424l-0.30278,1.24595c-0.63309,2.75148 -0.71567,3.24467 -1.04597,5.1136l-0.22021,0.15574l0.02753,0.02596zm16.49166,-21.49089l-1.59649,0.02596c-4.12885,0.05192 -5.78039,0.02596 -6.44101,-0.05192c-0.05505,0.28553 -0.16515,0.77872 -0.16515,0.77872c0,0 -1.48638,6.43742 -1.48638,6.46338c0,0 -3.52329,13.70548 -3.68844,14.35442c3.60586,-0.05192 5.06472,-0.05192 5.69781,0.02596c0.13763,-0.64894 0.9634,-4.46467 0.99092,-4.46467c0,0 0.71567,-2.80339 0.74319,-2.90722c0,0 0.22021,-0.28553 0.44041,-0.41532l0.33031,0c3.1104,0 6.60616,0 9.35872,-1.89489c1.87175,-1.29787 3.13792,-3.24467 3.71596,-5.58083c0.13763,-0.57106 0.24773,-1.24595 0.24773,-1.9468c0,-0.90851 -0.19268,-1.79106 -0.74319,-2.49191c-1.40381,-1.84297 -4.1839,-1.86893 -7.4044,-1.89489zm2.06442,6.72296c-0.33031,1.42765 -1.32123,2.64765 -2.58741,3.21871c-1.04598,0.49319 -2.31216,0.54511 -3.63339,0.54511l-0.8533,0l0.05505,-0.31149c0,0 1.56896,-6.43742 1.56896,-6.41147l0.05505,-0.33745l0.02752,-0.25957l0.63309,0.05192c0,0 3.24803,0.25957 3.30308,0.25957c1.26618,0.46723 1.81669,1.66127 1.43133,3.24467zm33.83579,2.15266l-0.19268,-0.20766c-2.33968,0.44128 -2.78009,0.51915 -4.92709,0.80468l-0.16516,0.15574c0,0.02596 -0.02752,0.05192 -0.02752,0.10383l0,-0.02596c-1.59649,3.50424 -1.56896,2.75148 -2.86267,5.50296c0,-0.12979 0,-0.20766 -0.02753,-0.33745l-0.33031,-5.97019l-0.19268,-0.20766c-2.47731,0.44128 -2.53236,0.51915 -4.78947,0.80468l-0.16515,0.15574c-0.02752,0.07787 -0.02752,0.15575 -0.02752,0.23362l0.02752,0.02596c0.27526,1.37574 0.22021,1.06425 0.49546,3.21871c0.13763,1.06425 0.30278,2.12851 0.44041,3.1668c0.22021,1.7651 0.35783,2.62169 0.63309,5.2953c-1.54144,2.38808 -1.89927,3.29659 -3.38566,5.39913l0.08258,0.20766c2.22958,-0.07787 2.72504,-0.07787 4.37658,-0.07787l0.35783,-0.38936c1.23865,-2.51786 10.70748,-17.8327 10.70748,-17.8327l-0.02752,-0.02596zm-80.51992,1.7195c1.26618,-0.83064 1.43133,-1.97276 0.35783,-2.56978c-1.0735,-0.59702 -2.97277,-0.41532 -4.23895,0.41532c-1.26618,0.80468 -1.40381,1.9468 -0.33031,2.56978c1.04597,0.57106 2.94524,0.41532 4.21143,-0.41532z"/>
     <path stroke="null" fill="#FEFEFE" id="Shape" d="m154.14345,66.61812l-1.84422,2.9851c-0.57804,1.01234 -1.67907,1.79106 -3.38565,1.79106l-2.94525,-0.05192l0.8533,-2.69957l0.57804,0c0.30278,0 0.52299,-0.02596 0.68814,-0.10383c0.16515,-0.05192 0.24773,-0.15575 0.38536,-0.31149l1.10103,-1.63531l4.59678,0l-0.02753,0.02596z"/>
    </g>
   </g>
  </g>
 </g>
</svg>