<?xml version="1.0" encoding="UTF-8" standalone="no"?>
<!-- Created with Inkscape (http://www.inkscape.org/) -->

<svg
   width="200"
   height="120"
   viewBox="0 0 52.916666 31.75"
   version="1.1"
   id="svg1"
   xml:space="preserve"
   xmlns="http://www.w3.org/2000/svg"
   xmlns:svg="http://www.w3.org/2000/svg"><defs
     id="defs1" /><g
     id="layer1"><path
       d="m 24.830969,21.611644 a 1.3716,1.2641155 0 0 1 -1.18195,-0.603965 l -0.0897,-0.17011 -7.08321,-8.625637 a 0.61976,0.5711929 0 0 1 -0.06773,-0.248142 0.6604,0.60864817 0 0 1 0.677333,-0.58992 c 0.1524,0 0.292946,0.04369 0.4064,0.117047 l 7.752077,4.26522 a 2.1302133,1.9632805 0 0 0 1.8034,0.181033 l 17.14326,-9.5151992 c -3.68131,-3.7767399 -9.74006,-6.24254537 -16.59806,-6.24254537 -11.22341,0 -20.3199972,6.60149167 -20.3199972,14.74177157 0,4.441569 2.7364272,8.43992 7.0205602,11.141381 a 1.2632267,1.1642347 0 0 1 0.56896,0.959792 1.4715067,1.356193 0 0 1 -0.07112,0.377675 l -0.916093,2.971451 c -0.04403,0.140458 -0.110067,0.285597 -0.110067,0.430736 0,0.327734 0.3048,0.58992 0.677334,0.58992 0.145626,0 0.265853,-0.04682 0.389466,-0.109245 l 4.45008,-2.234831 c 0.33528,-0.168548 0.687493,-0.27311 1.078653,-0.27311 0.20828,0 0.4064,0.02809 0.597747,0.07647 2.074337,0.519693 4.314617,0.809971 6.632787,0.809971 11.22341,-0.0016 20.32169,-6.60305 20.32169,-14.740207 0,-2.467367 -0.84158,-4.789594 -2.31648,-6.8309059 l -20.00842,13.3200309 -0.14732,0.07335 a 1.3936133,1.2844037 0 0 1 -0.6096,0.127973 z"
       fill="#15ba11"
       p-id="4446"
       id="path1"
       style="stroke-width:0.0317506" /></g></svg>
