<?xml version="1.0" encoding="UTF-8" standalone="no"?>
<!-- Created with Inkscape (http://www.inkscape.org/) -->

<svg
   width="200"
   height="120"
   viewBox="0 0 52.916666 31.75"
   version="1.1"
   id="svg1"
   xml:space="preserve"
   xmlns="http://www.w3.org/2000/svg"
   xmlns:svg="http://www.w3.org/2000/svg"><defs
     id="defs1"><linearGradient
       id="swatch14"><stop
         style="stop-color:#010101;stop-opacity:1;"
         offset="0"
         id="stop14" /></linearGradient><linearGradient
       id="swatch6"><stop
         style="stop-color:#000000;stop-opacity:1;"
         offset="0"
         id="stop7" /></linearGradient></defs><g
     id="layer1"><g
       id="g25"
       transform="matrix(0.05692435,0,0,0.05246963,3.9818601,3.0750505)"><path
         d="m 40,0 h 700 c 22.092,0 40,17.909 40,40 v 420 c 0,22.092 -17.908,40 -40,40 H 40 C 17.909,500 0,482.092 0,460 V 40 C 0,17.909 17.909,0 40,0 Z"
         fill="#ffffff"
         id="path1" /><path
         d="m 114.26,257.95 c -4.8,0.601 -13.203,2.4 -18.004,6.601 -14.403,12.599 -6.001,34.798 23.406,34.798 16.803,0 33.607,-10.8 46.81,-27.6 -19.204,-9 -34.808,-15.6 -52.212,-13.799 z"
         fill="#2ba6df"
         id="path2" /><path
         d="m 221.83,273.4 c 27.006,9 33.007,9.6 33.007,9.6 v -95.998 c 0,-16.199 -13.203,-29.398 -30.006,-29.398 H 98.801 c -16.204,0 -30.007,13.2 -30.007,29.4 v 126 c 0,16.199 13.203,29.398 30.007,29.398 h 126.03 c 16.203,0 30.006,-13.2 30.006,-29.4 v -1.199 c 0,0 -48.01,-19.799 -72.616,-31.799 -16.203,19.799 -37.208,32.399 -59.413,32.399 -37.208,0 -49.811,-32.399 -31.807,-53.399 3.6,-4.8 10.202,-9 20.404,-11.399 15.604,-3.601 40.81,2.399 64.215,10.2 4.2,-7.801 7.801,-16.2 10.202,-25.2 h -72.616 v -7.2 h 37.208 v -14.399 h -45.61 v -7.2 h 45.61 v -18.599 c 0,0 0,-3 3,-3 h 18.005 v 22.2 h 45.01 v 6.601 h -45.01 v 13.199 h 36.608 c -3.6,14.399 -9.002,27.599 -15.604,38.998 12.003,4.2 22.205,7.801 29.407,10.199 z"
         fill="#2ba6df"
         id="path3" /><path
         d="m 340.49,201.22 39.608,85.797 h -21.005 l -10.802,-22.801 h -32.408 l -10.802,22.801 h -13.803 l 40.209,-83.398 c 0,0 1.199,-2.4 3.6,-2.4 h 5.402 v 0.001 z m -21.006,55.197 h 25.206 l -12.603,-27 z m 87.448,31.282 h -19.204 v -81.598 c 0,-2.399 1.2,-3.601 4.2,-3.601 h 15.004 z m 36.007,-0.558 h -19.203 v -61.798 c 0,-2.4 1.199,-3.601 4.199,-3.601 h 15.004 z m 23.483,-64.116 h 12.604 v 6 c 2.4,-1.8 4.801,-3.601 7.801,-4.2 3.002,-1.199 6.002,-1.8 10.203,-1.8 4.199,0 7.801,0.601 10.803,2.399 3.6,1.801 6,3.601 8.4,6.601 2.4,3 4.201,6 5.402,9.601 1.199,3.6 1.799,7.199 1.799,11.398 0,5.4 -0.6,10.2 -2.398,14.4 -1.801,4.199 -3.602,8.399 -6.602,11.399 -3.002,3 -6.002,5.999 -10.203,7.8 -4.201,1.799 -8.402,2.399 -13.203,2.399 h -6.602 c -1.799,0 -3.6,-0.601 -5.4,-1.2 v 21.6 H 459.82 v -78.598 c -0.599,-7.799 2.401,-7.799 6.602,-7.799 z m 12.603,46.798 c 0,1.801 0,3 0.6,4.2 0.6,1.2 1.201,2.399 2.4,3.601 1.199,1.199 2.4,1.799 3.602,2.399 1.199,0.601 3,0.601 4.801,0.601 1.799,0 3,-0.601 4.801,-1.801 1.199,-1.199 3,-2.4 3.602,-4.8 0.6,-2.399 1.799,-4.2 2.398,-7.2 0.602,-3 1.201,-5.4 1.201,-9 0,-4.199 0,-7.799 -0.6,-10.799 -0.602,-3 -1.201,-5.4 -2.4,-7.8 -1.201,-1.8 -2.4,-3.601 -3.6,-4.8 -1.201,-1.2 -3.002,-1.801 -4.803,-1.801 -1.199,0 -2.4,0 -3.6,0.601 -1.201,0.601 -2.4,1.2 -3.002,1.8 -1.199,0.6 -1.799,1.801 -3,2.4 -1.201,1.199 -1.801,1.8 -2.4,3 v 29.4 z m 81.028,-46.798 c 4.801,0 8.402,0.601 12.002,1.2 3,0.6 6.002,1.8 8.402,3.6 2.4,1.801 3.6,3.6 4.801,5.4 1.199,2.4 1.801,4.8 1.801,7.199 v 47.398 h -19.205 v -4.8 c -1.199,1.2 -2.398,1.8 -3,2.399 l -3.602,1.801 c -1.199,0.6 -2.4,1.199 -4.199,1.199 -1.801,0.601 -3.602,0.601 -5.402,0.601 -3,0 -5.4,-0.601 -7.803,-1.2 -2.398,-0.6 -4.199,-1.8 -6,-3.6 -1.801,-1.2 -3.002,-3 -3.602,-5.4 -0.6,-1.8 -1.199,-4.199 -1.199,-6.6 0,-2.401 0.6,-4.801 1.199,-6.6 0.6,-1.801 2.4,-3.601 3.602,-5.4 1.199,-1.801 3.6,-3 5.4,-4.2 2.4,-1.2 4.201,-2.399 7.203,-3.601 2.398,-1.198 4.799,-1.799 7.801,-2.998 2.4,-0.601 5.4,-1.801 7.801,-2.4 l 2.4,-0.6 v -6.601 c 0,-1.8 0,-3.6 -0.6,-5.399 l -1.801,-3.601 c -0.6,-0.6 -1.799,-1.8 -2.398,-1.8 -1.201,-0.6 -2.4,-0.6 -3.602,-0.6 0,0 -10.203,0 -19.205,7.8 l -4.201,-6.601 c -1.798,1.203 9.004,-6.596 23.407,-6.596 z m 6.599,31.799 c -1.799,0.601 -3.6,1.8 -5.398,3 l -5.402,3.601 c -1.801,1.199 -3,2.399 -3.6,4.199 -1.201,1.2 -1.201,3 -1.201,4.2 0,1.2 0,2.4 0.6,3.601 0.6,1.199 0.6,1.8 1.199,3 0.602,1.199 1.201,1.199 1.801,1.8 0.6,0.6 1.201,0.6 2.4,0.6 1.801,0 3.002,-0.6 4.801,-1.2 l 5.402,-3.6 v -19.2 h -0.602 z m 46.555,53.998 h -12.604 l -0.6,-11.399 c 0,0 15.604,0.6 20.404,-5.4 1.801,-2.4 3,-8.999 3,-8.999 l -31.205,-59.998 h 21.004 l 19.805,38.999 17.404,-39 h 13.803 l -31.807,70.799 c -1.2,2.4 -6.001,14.999 -19.204,14.998 z"
         fill="#3f3a39"
         id="path4" /><ellipse
         cx="433.39999"
         cy="204.10001"
         rx="9.6020002"
         ry="8.5"
         fill="#2ba6df"
         id="ellipse4" /><path
         d="m 683.68,172.91 h -6.602 v -1.201 h 14.402 v 1.201 h -6.6 v 18.599 h -1.801 V 172.91 Z m 10.716,-1.201 h 2.4 l 4.201,11.4 1.801,4.2 c 0.6,-1.2 1.199,-3 1.799,-4.2 l 4.201,-11.4 h 2.4 v 20.4 H 708.8 v -18 l -1.8,4.801 -4.201,12 H 701.6 l -4.201,-12 -1.801,-4.801 v 18 h -1.801 v -20.4 z"
         fill="#3f3a39"
         id="path5" /></g></g><style
     type="text/css"
     id="style1">
  .st0{fill-rule:evenodd;clip-rule:evenodd;fill:#FFFFFF;}
 </style><style
     type="text/css"
     id="style1-1">
  .st0{fill-rule:evenodd;clip-rule:evenodd;fill:#FFFFFF;}
 </style></svg>
