<?xml version="1.0" encoding="UTF-8" standalone="no"?>
<!-- Created with Inkscape (http://www.inkscape.org/) -->

<svg
   width="200"
   height="120"
   viewBox="0 0 52.916666 31.75"
   version="1.1"
   id="svg1"
   xml:space="preserve"
   xmlns="http://www.w3.org/2000/svg"
   xmlns:svg="http://www.w3.org/2000/svg"><defs
     id="defs1" /><g
     id="layer1"><g
       style="fill:none"
       id="g1"
       transform="matrix(0.75771642,0,0,0.65662209,0.45366965,0.43890014)"><rect
         x="0.5"
         y="0.5"
         width="69"
         height="47"
         rx="5.5"
         fill="#ffffff"
         stroke="#d9d9d9"
         id="rect1" /><path
         fill-rule="evenodd"
         clip-rule="evenodd"
         d="m 19.1601,16.6863 c -0.5875,0.7038 -1.5276,1.2589 -2.4677,1.1796 -0.1175,-0.9516 0.3428,-1.9627 0.8813,-2.5872 0.5876,-0.7236 1.6158,-1.239 2.4482,-1.2787 0.0979,0.9913 -0.284,1.9627 -0.8618,2.6863 z m 0.8519,1.3679 c -0.8282,-0.0482 -1.5839,0.2522 -2.1943,0.4948 -0.3928,0.1561 -0.7254,0.2883 -0.9785,0.2883 -0.284,0 -0.6303,-0.1392 -1.0192,-0.2956 v 0 0 0 c -0.5096,-0.2049 -1.0922,-0.4392 -1.7031,-0.428 -1.4003,0.0198 -2.7027,0.8228 -3.4176,2.1015 -1.46886,2.5574 -0.3819,6.3441 1.038,8.4257 0.6953,1.0309 1.5277,2.1609 2.6244,2.1213 0.4825,-0.0184 0.8296,-0.1675 1.1888,-0.3218 0.4136,-0.1776 0.8432,-0.3622 1.514,-0.3622 0.6475,0 1.0583,0.1797 1.4527,0.3523 0.3749,0.164 0.735,0.3215 1.2696,0.3119 1.1359,-0.0199 1.8508,-1.0309 2.546,-2.0618 0.7503,-1.1065 1.0801,-2.1863 1.1301,-2.3502 l 0.0059,-0.019 c -0.0012,-0.0012 -0.0105,-0.0055 -0.0269,-0.013 -0.2508,-0.1163 -2.1679,-1.0047 -2.1862,-3.387 -0.0185,-1.9996 1.5205,-3.0127 1.7628,-3.1722 0.0147,-0.0097 0.0247,-0.0162 0.0292,-0.0196 -0.9793,-1.4671 -2.5069,-1.6257 -3.0357,-1.6654 z m 7.8635,12.5791 V 15.1796 h 5.7286 c 2.9574,0 5.0236,2.0618 5.0236,5.0752 0,3.0135 -2.1054,5.0951 -5.1019,5.0951 h -3.2805 v 5.2834 z m 2.3696,-13.4315 h 2.7321 c 2.0564,0 3.2315,1.1102 3.2315,3.063 0,1.9527 -1.1751,3.0729 -3.2413,3.0729 H 30.2451 Z M 46.452,28.7797 c -0.6267,1.2093 -2.0075,1.9726 -3.4959,1.9726 -2.2034,0 -3.7408,-1.3283 -3.7408,-3.3306 0,-1.9826 1.4885,-3.1225 4.2402,-3.291 l 2.9573,-0.1785 v -0.8524 c 0,-1.2589 -0.8128,-1.9429 -2.262,-1.9429 -1.1947,0 -2.0663,0.6245 -2.2425,1.5761 h -2.1348 c 0.0685,-2.0023 1.9291,-3.4595 4.4458,-3.4595 2.7125,0 4.4752,1.4373 4.4752,3.6677 v 7.6921 H 46.501 v -1.8536 z m -2.8596,0.1388 c -1.2632,0 -2.0662,-0.6146 -2.0662,-1.5563 0,-0.9714 0.7736,-1.5365 2.2523,-1.6257 l 2.6342,-0.1685 v 0.8723 c 0,1.4473 -1.2143,2.4782 -2.8203,2.4782 z m 12.3778,2.3195 c -0.9498,2.7062 -2.0368,3.5983 -4.3478,3.5983 -0.1763,0 -0.7639,-0.0198 -0.901,-0.0595 v -1.8536 c 0.1469,0.0198 0.5093,0.0396 0.6953,0.0396 1.0478,0 1.6354,-0.4461 1.9977,-1.6058 l 0.2154,-0.684 -4.0149,-11.2508 h 2.4775 l 2.7909,9.1295 h 0.0489 l 2.7909,-9.1295 h 2.409 z"
         fill="#000000"
         id="path1" /></g></g></svg>
