<?xml version="1.0" encoding="UTF-8" standalone="no"?>
<!-- Created with Inkscape (http://www.inkscape.org/) -->

<svg
   width="200"
   height="120"
   viewBox="0 0 52.916666 31.75"
   version="1.1"
   id="svg1"
   xml:space="preserve"
   xmlns="http://www.w3.org/2000/svg"
   xmlns:svg="http://www.w3.org/2000/svg"><defs
     id="defs1"><linearGradient
       id="swatch6"><stop
         style="stop-color:#000000;stop-opacity:1;"
         offset="0"
         id="stop7" /></linearGradient></defs><g
     id="layer1"><path
       d="m 28.19108,13.281839 q 0,1.89811 -2.664986,1.968411 h -2.205506 v 0 -3.86652 0 h 2.205506 v 0 q 2.664986,0.0703 2.664986,1.898109 z m 4.411013,4.428923 q 0,0.913905 1.654129,0.984205 2.205507,-0.140601 2.297402,-1.546607 v -0.562404 0 l -2.11361,0.140601 v 0 q -1.837921,0.0703 -1.837921,0.984205 z M 53.37061,3.5100901 V 28.255817 3.5100901 28.255817 q -0.09189,1.406006 -1.286549,2.39021 -1.286544,0.913906 -3.124464,0.984205 H 4.8494747 v 0 Q 3.0115528,31.559929 1.725008,30.646027 0.53035881,29.661823 0.43846259,28.255817 v -24.7457269 0 Q 0.53035881,2.1040829 1.725008,1.1198778 3.0115528,0.20597327 4.8494747,0.13567297 H 48.959597 v 0 q 1.83792,0.0703003 3.124464,0.98420483 1.194651,0.9842051 1.286549,2.3902123 z M 12.201161,11.805531 q 1.19465,0 2.021714,-0.703003 0.735169,-0.703003 0.735169,-1.6872078 -1.194648,0.070303 -2.021714,0.7733028 -0.827064,0.703004 -0.735169,1.616908 z m 5.513765,5.272527 q 0,0 0,0 v 0 0 q -0.275687,-0.0703 -0.91896,-0.562401 v 0 0 q -0.735168,-0.492103 -0.827065,-1.546608 0,-0.984205 0.643273,-1.476308 0.551376,-0.421802 0.735169,-0.492102 0.09189,0 0.09189,0 -0.643273,-0.703005 -1.378441,-0.913905 -0.827065,-0.140601 -1.19465,-0.140601 -1.010857,0 -1.746025,0.281201 -0.45948,0.140602 -0.827065,0.210902 -0.367584,-0.0703 -0.827065,-0.210902 -0.643273,-0.210901 -1.378441,-0.281201 -1.837922,0.0703 -2.8487788,1.335706 -0.8270651,1.265407 -0.4594803,2.741715 0.3675846,1.476307 1.3784409,2.460512 0.8270644,1.195105 2.1136102,1.335707 0.551376,-0.0703 1.010857,-0.210901 0.45948,-0.2109 1.194649,-0.2109 0.827065,0 1.194649,0.2109 0.459481,0.210901 1.102754,0.210901 1.286545,-0.210901 2.021713,-1.265407 0.918961,-1.195106 0.918961,-1.476308 z m 12.497868,-3.796219 q -0.09189,-1.406006 -1.194649,-2.24961 v 0 0 Q 27.915392,10.188623 26.07747,10.188623 h -4.6867 v 0 9.56085 0 h 1.929818 v 0 -3.304117 0 h 2.664986 v 0 q 1.929818,0 3.032571,-0.843605 1.102754,-0.843604 1.194649,-2.319912 z m 8.270648,1.68721 q -0.183792,-2.179312 -3.675843,-2.249612 -1.562234,0 -2.573091,0.562402 -1.010857,0.632703 -1.102753,1.546609 h 1.746025 v 0 q 0.275689,-0.913906 1.837923,-0.984205 1.837921,0 1.837921,1.195106 v 0.562402 0 l -2.389298,0.140601 v 0 q -3.400156,0.140601 -3.492051,2.03871 0.183792,1.968411 3.124467,2.038711 1.929817,-0.0703 2.848778,-1.195106 v 0 0 1.124806 0 h 1.837922 v 0 z m 9.373402,-2.179312 h -1.929818 1.929818 -1.929818 l -2.297402,5.694329 v 0 h -0.09189 v 0 l -2.297407,-5.694329 v 0 H 39.21861 v 0 l 3.308257,6.959736 v 0 l -0.183791,0.421801 v 0 q -0.367585,1.054507 -1.654128,0.984205 -0.275687,0 -0.551376,0 v 1.195107 0 q 0.367584,0 0.735167,0 2.664987,0.140601 3.583947,-2.249611 z"
       id="path1"
       style="stroke-width:0.0904233" /></g><style
     type="text/css"
     id="style1">
  .st0{fill-rule:evenodd;clip-rule:evenodd;fill:#FFFFFF;}
 </style></svg>
