<?xml version="1.0" encoding="utf-8"?>
<!-- Generator: Adobe Illustrator 24.1.1, SVG Export Plug-In . SVG Version: 6.00 Build 0)  -->
<svg version="1.1" id="Layer_1" xmlns="http://www.w3.org/2000/svg" xmlns:xlink="http://www.w3.org/1999/xlink" x="0px" y="0px"
	 viewBox="0 0 512 512" style="enable-background:new 0 0 512 512;" xml:space="preserve">
<g>
	<path d="M268.6,223.5c0,15.3-9.3,24.1-25.8,24.1h-21.6v-48.2H243C259.3,199.4,268.6,208.1,268.6,223.5z M310.9,279.1
		c0,7.4,6.4,12.2,16.4,12.2c12.8,0,22.4-8.1,22.4-19.5V265l-20.9,1.3C317,267.1,310.9,271.4,310.9,279.1L310.9,279.1z M512,99.6
		v312.9c0,23.6-19.1,42.7-42.7,42.7H42.7C19.1,455.1,0,436,0,412.4V99.6C0,76,19.1,56.9,42.7,56.9h426.7C492.9,56.9,512,76,512,99.6
		z M113.6,204.6c7.5,0.6,14.9-3.7,19.6-9.2c4.6-5.7,7.6-13.3,6.8-21.1c-6.6,0.3-14.7,4.4-19.5,10
		C116.4,189.2,112.7,197.1,113.6,204.6z M167.5,270.8c-0.2-0.2-17.4-6.7-17.6-26.7c-0.2-16.6,13.6-24.6,14.2-25.1
		c-7.8-11.5-19.9-12.8-24.1-13.1c-10.9-0.6-20.1,6.1-25.2,6.1c-5.2,0-13.1-5.9-21.6-5.7c-11.1,0.2-21.5,6.5-27.1,16.5
		c-11.6,20.1-3,49.8,8.3,66.1c5.5,8.1,12.2,17,20.9,16.6c8.2-0.4,11.5-5.3,21.5-5.3c10,0,12.9,5.3,21.6,5.2
		c9.1-0.2,14.7-8.1,20.3-16.2C164.7,280.2,167.3,271.4,167.5,270.8L167.5,270.8z M287.8,223.4c0-23.6-16.4-39.8-39.9-39.8h-45.5
		v121.2h18.9v-41.4h26C271.1,263.4,287.8,247,287.8,223.4z M367.8,244.4c0-17.5-14-28.8-35.5-28.8c-20,0-34.7,11.5-35.3,27.1h17
		c1.4-7.5,8.4-12.4,17.8-12.4c11.6,0,18,5.3,18,15.3v6.7l-23.5,1.4c-21.9,1.3-33.7,10.3-33.7,25.9c0,15.7,12.2,26.1,29.7,26.1
		c11.8,0,22.7-6,27.7-15.5h0.4v14.6h17.4v-60.5H367.8z M458.7,216.8h-19.1l-22.1,71.6h-0.4L395,216.8h-19.8l31.9,88.3l-1.7,5.3
		c-2.8,9.1-7.6,12.6-15.9,12.6c-1.5,0-4.4-0.2-5.5-0.3v14.6l7.2,0.4c18.4,0,27-7,34.6-28.3L458.7,216.8z"/>
</g>
</svg>
