<?xml version="1.0" encoding="UTF-8" standalone="no"?>
<!-- Created with Inkscape (http://www.inkscape.org/) -->

<svg
   width="200"
   height="120"
   viewBox="0 0 52.916666 31.75"
   version="1.1"
   id="svg1"
   xml:space="preserve"
   xmlns="http://www.w3.org/2000/svg"
   xmlns:svg="http://www.w3.org/2000/svg"><defs
     id="defs1" /><g
     id="layer1"><g
       id="GooglePay_mark_800_gray"
       style="fill:none;fill-rule:evenodd;stroke:none;stroke-width:1"
       transform="matrix(0.12395616,0,0,0.11577278,0.21764128,0.27760244)"><g
         id="border"><path
           d="M 386.73101,0.08976427 H 38.039747 c -1.452506,0 -2.907578,0 -4.357518,0.0076941 C 32.45812,0.10771713 31.236578,0.1205406 30.01247,0.15388161 27.346121,0.22569303 24.656675,0.38213934 22.023687,0.85660765 19.349639,1.3362053 16.860361,2.1210016 14.432675,3.3571839 12.043482,4.5702839 9.8595904,6.1578292 7.9631205,8.0505731 6.0692169,9.9458816 4.4806988,12.125871 3.2668554,14.516166 2.0299157,16.942366 1.2446385,19.430118 0.76731325,22.105094 0.28998795,24.739034 0.13344578,27.424268 0.06159036,30.08642 0.02822892,31.309779 0.01283133,32.530573 0.00513253,33.751367 -0.00256627,35.202984 0,36.6546 0,38.108782 V 233.84106 c 0,1.45419 -0.00256627,2.90324 0.00513253,4.35742 0.0076988,1.22079 0.02309639,2.44415 0.05645783,3.66495 0.07185542,2.65958 0.22839759,5.34738 0.70572289,7.97876 0.47732525,2.67497 1.26260245,5.16273 2.49954215,7.59149 1.2138434,2.38773 2.8023615,4.57028 4.6962651,6.46303 1.8964699,1.89531 4.0803615,3.48285 6.4695545,4.69339 2.427686,1.23874 4.916964,2.02354 7.591012,2.5057 2.632988,0.46934 5.322434,0.62835 7.988783,0.70016 1.224108,0.0282 2.44565,0.0462 3.669759,0.0513 1.44994,0.0103 2.905012,0.0103 4.357518,0.0103 H 386.73101 c 1.44994,0 2.90501,0 4.35495,-0.0103 1.22155,-0.005 2.44309,-0.0231 3.67233,-0.0513 2.66122,-0.0718 5.35066,-0.23082 7.98878,-0.70016 2.67148,-0.48216 5.16076,-1.26696 7.59101,-2.5057 2.3892,-1.21054 4.56796,-2.79808 6.46699,-4.69339 1.89134,-1.89275 3.47986,-4.0753 4.69627,-6.46303 1.2395,-2.42876 2.02478,-4.91652 2.49954,-7.59149 0.47732,-2.63138 0.6313,-5.31918 0.70316,-7.97876 0.0334,-1.2208 0.0487,-2.44416 0.0564,-3.66495 0.0103,-1.45418 0.0103,-2.90323 0.0103,-4.35742 V 38.108782 c 0,-1.454182 0,-2.905798 -0.0103,-4.357415 -0.008,-1.220794 -0.0231,-2.441588 -0.0564,-3.664947 -0.0719,-2.662152 -0.22584,-5.347386 -0.70316,-7.981326 -0.47476,-2.674976 -1.26004,-5.162728 -2.49954,-7.588928 -1.21641,-2.390295 -2.80493,-4.5702844 -4.69627,-6.4655929 -1.89903,-1.8927439 -4.07779,-3.4802892 -6.46699,-4.6933892 -2.43025,-1.2361823 -4.91953,-2.0209786 -7.59101,-2.50057625 -2.63812,-0.47446831 -5.32756,-0.63091462 -7.98878,-0.70272604 -1.22924,-0.033341 -2.45078,-0.0461645 -3.67233,-0.05642325 -1.44994,-0.0076941 -2.90501,-0.0076941 -4.35495,-0.0076941"
           id="Fill-1"
           fill="#3c4043" /><path
           d="m 386.73101,9.1482619 4.2908,0.00769 c 1.15995,0.00769 2.32247,0.020518 3.49012,0.053859 2.03248,0.053859 4.41141,0.1641404 6.62866,0.5616679 1.9247,0.3462332 3.54145,0.8745602 5.09147,1.6619212 1.53206,0.777102 2.93324,1.79785 4.15735,3.018644 1.22924,1.231053 2.25061,2.63394 3.03846,4.180451 0.78527,1.538816 1.30879,3.144314 1.65524,5.083222 0.3952,2.192813 0.50555,4.575414 0.55944,6.619474 0.0334,1.151548 0.0488,2.30566 0.0539,3.487984 0.0103,1.428534 0.0103,2.854504 0.0103,4.285603 V 233.84106 c 0,1.4311 0,2.85707 -0.0103,4.31382 -0.005,1.15411 -0.0205,2.30822 -0.0539,3.4649 -0.0539,2.03893 -0.16424,4.42153 -0.56457,6.63743 -0.34132,1.91326 -0.86484,3.51876 -1.65525,5.06527 -0.78527,1.54394 -1.80408,2.94427 -3.02819,4.16762 -1.23181,1.23106 -2.62785,2.24668 -4.17788,3.03147 -1.53976,0.7848 -3.15137,1.31312 -5.05811,1.65423 -2.26344,0.40266 -4.73989,0.5155 -6.60556,0.56423 -1.17279,0.0282 -2.34044,0.0436 -3.53888,0.0487 -1.42428,0.0103 -2.85626,0.0103 -4.2831,0.0103 H 38.039747 c -0.01796,0 -0.03593,0 -0.05646,0 -1.408879,0 -2.822891,0 -4.257434,-0.0103 -1.170216,-0.005 -2.337867,-0.0205 -3.467024,-0.0462 -1.909301,-0.0513 -4.388313,-0.16414 -6.631229,-0.56424 -1.924698,-0.34367 -3.536313,-0.87199 -5.096602,-1.66705 -1.534627,-0.7771 -2.930675,-1.79272 -4.162482,-3.02634 -1.221542,-1.21822 -2.237783,-2.61598 -3.02306,-4.16249 -0.787843,-1.54395 -1.313928,-3.15458 -1.6603737,-5.09092 -0.397771,-2.21333 -0.5081204,-4.58311 -0.5645783,-6.61178 -0.030795,-1.15924 -0.043627,-2.32105 -0.051325,-3.4726 L 9.064049,234.7412 V 37.211139 l 0.00513,-3.398219 c 0.0077,-1.161806 0.02053,-2.321048 0.051325,-3.480289 0.056458,-2.031238 0.1668073,-4.403579 0.5697109,-6.634863 0.3413131,-1.915826 0.8673981,-3.529018 1.6578071,-5.080658 0.780145,-1.533686 1.798952,-2.934009 3.025627,-4.159932 1.224108,-1.225924 2.627855,-2.241543 4.17018,-3.026339 1.542326,-0.787361 3.159073,-1.313123 5.083771,-1.6593565 2.217253,-0.3975275 4.596181,-0.5078094 6.633796,-0.5616679 1.159951,-0.033341 2.322469,-0.046164 3.474722,-0.053859 l 4.303627,-0.00769 H 386.73101"
           id="wihit-fill"
           fill="#fffffe" /></g><g
         id="GPay-logo"
         transform="translate(48.759036,76.981132)"><g
           id="Pay"
           transform="translate(143.5699,7.624798)"
           fill="#3c4043"><path
             d="M 12.177133,57.643472 V 96.377445 H 0.07516749 V 0.76247978 H 32.171685 C 39.913937,0.60998383 47.430686,3.583655 52.917912,9.0735094 63.892366,19.443234 64.568873,36.904022 54.270927,48.112474 c -0.451005,0.457488 -0.90201,0.914976 -1.353015,1.372464 -5.637561,5.413606 -12.55297,8.158534 -20.746227,8.158534 z m 0,-45.138804 v 33.396615 h 20.295222 c 4.51005,0.152496 8.869764,-1.677456 11.951631,-4.956119 C 50.738055,34.31159 50.58772,23.636873 44.048149,17.232043 40.966282,14.182124 36.83207,12.504668 32.472355,12.504668 Z"
             id="Shape"
             fill-rule="nonzero" /><path
             d="m 89.52448,28.821736 c 8.944931,0 16.01068,2.439935 21.19723,7.243558 5.18656,4.803622 7.74225,11.513444 7.74225,19.97697 v 40.335181 h -11.57579 v -9.07351 H 106.362 c -5.03623,7.472302 -11.650964,11.208453 -19.994555,11.208453 -7.065744,0 -13.079143,-2.134943 -17.814695,-6.40483 -4.660384,-3.964895 -7.291246,-9.835989 -7.140911,-16.012075 0,-6.786071 2.555694,-12.123429 7.591916,-16.164572 5.036222,-4.041143 11.801296,-6.02359 20.220055,-6.02359 7.216079,0 13.07914,1.372463 17.73953,3.964895 V 55.05104 c 0,-4.193638 -1.80402,-8.158533 -4.96106,-10.903461 -3.232199,-2.897423 -7.366411,-4.49863 -11.650958,-4.49863 -6.765074,0 -12.101966,2.897423 -16.010675,8.692269 L 63.666863,41.555148 C 69.379592,33.091623 78.023854,28.821736 89.52448,28.821736 Z m -15.634838,47.50249 c 0,3.202415 1.50335,6.176087 3.983877,8.006038 2.706029,2.134944 6.013399,3.278663 9.395936,3.202415 5.111389,0 9.997276,-2.058695 13.605315,-5.718598 3.98388,-3.812399 6.0134,-8.31103 6.0134,-13.495892 -3.75837,-3.049919 -9.020099,-4.574879 -15.785173,-4.498631 -4.885887,0 -9.020099,1.219968 -12.327468,3.583655 -3.232202,2.363687 -4.885887,5.337358 -4.885887,8.921013 z"
             id="path1"
             fill-rule="nonzero" /><polygon
             id="Path"
             points="131.99411,125.12293 147.02761,92.183806 120.49349,30.956679 133.6478,30.956679 152.81551,77.925434 153.04101,77.925434 171.75771,30.956679 184.91202,30.956679 144.47191,125.12293 " /></g><g
           id="Super-G"><path
             d="m 106.813,56.880992 c 0,-3.736151 -0.30067,-7.472302 -0.90201,-11.132205 H 54.872267 v 21.12069 H 84.11242 c -1.202679,6.78607 -5.111389,12.885908 -10.824118,16.698307 V 97.292421 H 90.727159 C 100.94994,87.761423 106.813,73.655547 106.813,56.880992 Z"
             id="path2"
             fill="#4285f4" /><path
             d="m 54.872267,110.55957 c 14.582493,0 26.909961,-4.87987 35.854892,-13.267149 L 73.288302,83.567784 c -4.885887,3.354911 -11.124788,5.261111 -18.416035,5.261111 -14.131488,0 -26.083119,-9.683493 -30.367666,-22.64565 H 6.5395716 V 80.365369 C 15.710005,98.893628 34.42671,110.55957 54.872267,110.55957 Z"
             id="path3"
             fill="#34a853" /><path
             d="m 24.504601,66.183245 c -2.255024,-6.78607 -2.255024,-14.182124 0,-21.044442 V 31.032927 H 6.5395716 c -7.7422514,15.47834 -7.7422514,33.777855 0,49.256194 z"
             id="path4"
             fill="#fbbc04" /><path
             d="m 54.872267,22.493154 c 7.742252,-0.152496 15.183833,2.821175 20.746227,8.234781 L 91.102997,15.020852 C 81.256056,5.7185984 68.327248,0.60998383 54.872267,0.76247978 34.42671,0.76247978 15.710005,12.504668 6.5395716,31.032927 L 24.504601,45.215051 C 28.789148,32.176647 40.740779,22.493154 54.872267,22.493154 Z"
             id="path5"
             fill="#ea4335" /></g></g></g></g></svg>
