<svg xmlns="http://www.w3.org/2000/svg" viewBox="0 0 24 24" fill="#003087"><rect width="24" height="24" rx="2" fill="#fff"/><path d="M7.076 21.337H2.47a.641.641 0 0 1-.633-.74L4.944.901C5.026.382 5.493 0 5.998 0h7.46c2.57 0 4.578.543 5.69 1.81 1.01 1.15 1.304 2.42 1.012 4.287-.023.143-.047.288-.077.437-.946 5.05-4.336 5.05-7.116 5.05h-1.22c-.482 0-.901.35-.975.824l-1.696 8.929z"/><path fill="#009cde" d="M9.167 21.337h3.93c.482 0 .901-.35.975-.824l.034-.173.89-4.7.032-.183c.073-.474-.293-.824-.775-.824h-2.22c.482 0 .901-.35.975-.824l1.696-8.929c-.082.519-.55 1.06-1.055 1.06H6.19c-2.57 0-4.578-.543-5.69-1.81L9.167 21.337z"/><path fill="#003087" d="M10.176 14.987h2.22c.482 0 .848.35.775.824l-.032.183-.89 4.7-.034.173c-.074.474-.493.824-.975.824h-3.93l1.696-8.929c.074-.474.493-.824.975-.824h.195z"/></svg>
