<svg width="200.00000000000003" height="120" xmlns="http://www.w3.org/2000/svg">

 <g>
  <title>Layer 1</title>
  <g stroke="null">
   <g stroke="null">
    <path stroke="null" fill="#6772E5" d="m16.84656,48.25421c0,-3.00824 1.75107,-4.16527 4.65129,-4.16527c4.1588,0 9.41202,1.7741 13.57082,4.93662l0,-18.12663c-4.54184,-2.54544 -9.02897,-3.54819 -13.57082,-3.54819c-11.10837,0 -18.49571,8.17627 -18.49571,21.82908c0,21.28914 20.79399,17.89522 20.79399,27.07423c0,3.54819 -2.18884,4.70521 -5.25322,4.70521c-4.54184,0 -10.34228,-2.62258 -14.93885,-6.17077l0,18.35803c5.08906,3.08538 10.23284,4.39667 14.93885,4.39667c11.38198,0 19.20709,-7.94486 19.20709,-21.75194c-0.05472,-22.9861 -20.90344,-18.89797 -20.90344,-27.53704zm36.99142,-36.33038l-13.35193,4.01099l-0.05472,61.78479c0,11.41592 6.07404,19.82358 14.17275,19.82358c4.48712,0 7.77039,-1.15702 9.57618,-2.54544l0,-15.65832c-1.75107,1.00275 -10.397,4.55094 -10.397,-6.86498l0,-27.38277l10.397,0l0,-16.42966l-10.397,0l0.05472,-16.7382zm27.36052,22.44616l-0.87554,-5.70796l-11.81975,0l0,67.49274l13.68026,0l0,-45.74079c3.22854,-5.93936 8.70064,-4.85948 10.397,-4.011l0,-17.74095c-1.75107,-0.92562 -8.15343,-2.62258 -11.38198,5.70796zm14.71996,-5.70796l13.73498,0l0,67.49274l-13.73498,0l0,-67.49274zm0,-5.86223l13.73498,-4.16527l0,-15.65832l-13.73498,4.08813l0,15.73545zm42.29937,4.55094c-5.36266,0 -8.81009,3.54819 -10.72532,6.0165l-0.71137,-4.78234l-12.03863,0l0,89.9389l13.68026,-4.08813l0.05472,-21.82908c1.96996,2.0055 4.87017,4.85948 9.68562,4.85948c9.79507,0 18.7146,-11.10738 18.7146,-35.55903c-0.05472,-22.36903 -9.08369,-34.55629 -18.65988,-34.55629zm-3.28326,53.14572c-3.22854,0 -5.14378,-1.61982 -6.45708,-3.62532l-0.05472,-28.61693c1.42275,-2.2369 3.39271,-3.77959 6.51181,-3.77959c4.97961,0 8.42704,7.86772 8.42704,17.97235c0,10.33603 -3.39271,18.04949 -8.42704,18.04949zm65.06332,-17.81808c0,-19.74645 -6.78541,-35.32763 -19.7543,-35.32763c-13.02361,0 -20.90344,15.58118 -20.90344,35.17337c0,23.2175 9.30258,34.94196 22.65451,34.94196c6.5118,0 11.4367,-2.08263 15.15773,-5.01374l0,-15.42692c-3.72103,2.62258 -7.98927,4.24241 -13.40665,4.24241c-5.30794,0 -10.01395,-2.62258 -10.61588,-11.72446l26.75859,0c0,-1.00275 0.10944,-5.01375 0.10944,-6.86498zm-27.0322,-7.32778c0,-8.71621 3.77575,-12.34153 7.22318,-12.34153c3.33798,0 6.89485,3.62533 6.89485,12.34153l-14.11803,0l0,0z"/>
   </g>
  </g>
 </g>
</svg>