<svg width="200.00000000000003" height="120" xmlns="http://www.w3.org/2000/svg">

 <g>
  <title>Layer 1</title>
  <g stroke="null">
   <!-- Generator: Sketch 48.2 (47327) - http://www.bohemiancoding.com/sketch -->
   <desc stroke="null">Created with Sketch.</desc>

   <g stroke="null" fill-rule="evenodd" fill="none" id="svg_4">
    <g stroke="null" fill-rule="nonzero" id="svg_5">
     <rect stroke="null" rx="40" height="115.49518" width="194.99254" y="1.5024" x="1.00371" fill="#2557D6" id="svg_8"/>
     <path stroke="null" fill="#FFFFFF" id="svg_7" d="m1.00441,55.73979l9.36592,0l2.11183,-4.7841l4.72792,0l2.10629,4.7841l18.42818,0l0,-3.65759l1.64492,3.67318l9.56652,0l1.64492,-3.72775l0,3.71216l45.79757,0l-0.02145,-7.8531l0.8861,0c0.62048,0.02016 0.80171,0.07406 0.80171,1.03621l0,6.81689l23.68666,0l0,-1.82815c1.91054,0.9615 4.88218,1.82815 8.79248,1.82815l9.96496,0l2.13258,-4.7841l4.72792,0l2.08555,4.7841l19.20291,0l0,-4.54438l2.908,4.54438l15.38806,0l0,-30.04032l-15.22896,0l0,3.5478l-2.13258,-3.5478l-15.62671,0l0,3.5478l-1.95827,-3.5478l-21.10792,0c-3.53332,0 -6.63915,0.46321 -9.14803,1.75408l0,-1.75408l-14.5663,0l0,1.75408c-1.59649,-1.3305 -3.77196,-1.75408 -6.19092,-1.75408l-53.21629,0l-3.57067,7.7589l-3.66682,-7.7589l-16.76182,0l0,3.5478l-1.84137,-3.5478l-14.29514,0l-6.63846,14.2828l0,15.75752l0.00068,0l0.00002,0zm59.12093,-4.33308l-5.61965,0l-0.02075,-16.86909l-7.94858,16.86909l-4.81301,0l-7.96933,-16.88404l0,16.88404l-11.14918,0l-2.1063,-4.80424l-11.41342,0l-2.12774,4.80424l-5.95366,0l9.81623,-21.53886l8.14434,0l9.32304,20.39285l0,-20.39285l8.94674,0l7.17385,14.61152l6.59004,-14.61152l9.12659,0l0,21.53886l0.00078,0zm-41.50023,-9.27431l-3.7519,-8.58657l-3.73046,8.58657l7.48236,0zm63.86455,9.27431l-18.31197,0l0,-21.53886l18.31197,0l0,4.48526l-12.83007,0l0,3.88238l12.52225,0l0,4.41509l-12.52225,0l0,4.30141l12.83007,0l0,4.45472zm25.80552,-15.73803c0,3.43411 -2.4404,5.20833 -3.86258,5.74105c1.19945,0.42878 2.22389,1.18628 2.71155,1.81385c0.77403,1.07129 0.90754,2.02824 0.90754,3.95189l0,4.23124l-5.52894,0l-0.02075,-2.71623c0,-1.29608 0.13212,-3.15995 -0.86535,-4.19616c-0.80101,-0.75751 -2.02191,-0.92187 -3.99539,-0.92187l-5.88449,0l0,7.83426l-5.48121,0l0,-21.53886l12.60803,0c2.80148,0 4.86558,0.06951 6.63777,1.03166c1.73415,0.96215 2.77381,2.36671 2.77381,4.76916l0,0zm-6.92939,3.19834c-0.75329,0.42943 -1.64422,0.44372 -2.71155,0.44372l-6.65922,0l0,-4.7841l6.74983,0c0.95527,0 1.95204,0.04028 2.59949,0.3885c0.71109,0.31379 1.15103,0.98164 1.15103,1.90416c0,0.94136 -0.41849,1.69887 -1.12958,2.04773zm15.72064,12.5397l-5.59327,0l0,-21.53886l5.59327,0l0,21.53886zm64.92978,0l-7.76805,0l-10.39036,-16.16616l0,16.16616l-11.16371,0l-2.13327,-4.80424l-11.38714,0l-2.06964,4.80424l-6.41434,0c-2.66452,0 -6.03805,-0.55351 -7.94859,-2.38231c-1.92645,-1.82879 -2.92875,-4.30595 -2.92875,-8.22276c0,-3.19438 0.59903,-6.11461 2.95504,-8.4222c1.77219,-1.719 4.54738,-2.51159 8.32488,-2.51159l5.3069,0l0,4.61519l-5.19553,0c-2.00046,0 -3.13004,0.27936 -4.21813,1.27593c-0.93452,0.90693 -1.57574,2.62138 -1.57574,4.87895c0,2.30759 0.48835,3.97138 1.50726,5.05826c0.8439,0.85236 2.37745,1.11092 3.82038,1.11092l2.46184,0l7.72585,-16.93861l8.21351,0l9.28084,20.37271l0,-20.37271l8.34632,0l9.6357,15.00067l0,-15.00067l5.61471,0l0,21.53821zm-33.31982,-9.27431l-3.79341,-8.58657l-3.77266,8.58657l7.56606,0z"/>
     <path stroke="null" fill="#FFFFFF" id="svg_6" d="m195.98493,85.79848c-1.33156,1.8288 -3.92621,2.75586 -7.43878,2.75586l-10.58612,0l0,-4.61974l10.54324,0c1.04589,0 1.77773,-0.12928 2.21835,-0.53337c0.38183,-0.33328 0.64814,-0.81727 0.64814,-1.40522c0,-0.62757 -0.26631,-1.12586 -0.66959,-1.42471c-0.39774,-0.32873 -0.97671,-0.47815 -1.93129,-0.47815c-5.14711,-0.16436 -11.56837,0.14942 -11.56837,-6.66812c0,-3.12487 2.11252,-6.4141 7.86489,-6.4141l10.91884,0l0.00069,-4.28646l-10.14549,0c-3.06156,0 -5.28545,0.68864 -6.8605,1.75928l0,-1.75928l-15.00554,0c-2.39959,0 -5.21628,0.55871 -6.54854,1.75928l0,-1.75928l-26.79595,0l0,1.75928c-2.13258,-1.44484 -5.73092,-1.75928 -7.39175,-1.75928l-17.6749,0l0,1.75928c-1.68711,-1.5345 -5.43902,-1.75928 -7.72585,-1.75928l-19.78119,0l-4.52663,4.6009l-4.23957,-4.6009l-29.54901,0l0,30.06111l28.99286,0l4.66428,-4.67366l4.39382,4.67366l17.87134,0.01493l0,-7.07156l1.75697,0c2.37123,0.03443 5.16786,-0.05522 7.63523,-1.057l0,8.11296l14.74061,0l0,-7.83491l0.71109,0c0.90754,0 0.99677,0.03508 0.99677,0.88679l0,6.94747l44.77935,0c2.84298,0 5.81462,-0.68344 7.46022,-1.92364l0,1.92364l14.20383,0c2.95573,0 5.84229,-0.38915 8.03851,-1.38573l0,-5.60008l0,0.00001zm-88.7875,-11.56288c0,5.98468 -4.75421,7.22033 -9.54577,7.22033l-6.83975,0l0,7.22618l-10.6546,0l-6.74983,-7.13198l-7.01476,7.13198l-21.71317,0l0,-21.54405l22.04728,0l6.74429,7.06181l6.97256,-7.06181l17.5158,0c4.35024,0 9.23795,1.13106 9.23795,7.09754zm-43.58089,9.9149l-13.47752,0l0,-4.28646l12.03459,0l0,-4.3956l-12.03459,0l0,-3.91681l13.74314,0l5.99585,6.27833l-6.26147,6.32055zm21.71611,2.46687l-8.41619,-8.77562l8.41619,-8.49691l0,17.27253zm12.44643,-9.57936l-7.08393,0l0,-5.48639l7.14757,0c1.97902,0 3.35278,0.75751 3.35278,2.64152c0,1.86322 -1.31012,2.84486 -3.41642,2.84486zm37.11185,-9.89998l18.29537,0l0,4.45539l-12.8363,0l0,3.91681l12.52295,0l0,4.3956l-12.52295,0l0,4.28646l12.8363,0.01947l0,4.47032l-18.29537,0l0,-21.54405zm-7.03359,11.53214c1.2202,0.42293 2.21766,1.18108 2.68527,1.80866c0.77403,1.0518 0.8861,2.03344 0.90823,3.9324l0,4.27087l-5.50334,0l0,-2.69544c0,-1.29607 0.13281,-3.21517 -0.8861,-4.21695c-0.80101,-0.7718 -2.0219,-0.9563 -4.02167,-0.9563l-5.8582,0l0,7.86869l-5.50819,0l0,-21.54405l12.65575,0c2.77519,0 4.79641,0.11499 6.59558,1.01672c1.73,0.98164 2.81808,2.32644 2.81808,4.7841c-0.00078,3.43865 -2.44247,5.19339 -3.88541,5.73131zm-3.09863,-2.7236c-0.73322,0.40864 -1.64007,0.44372 -2.70671,0.44372l-6.65921,0l0,-4.83868l6.74983,0c0.97602,0 1.95273,0.01947 2.6161,0.38915c0.7104,0.34887 1.13512,1.01607 1.13512,1.93794c0,0.92187 -0.42472,1.66443 -1.13512,2.06787zm49.48557,1.3723c1.06733,1.03751 1.63938,2.34722 1.63938,4.56452c0,4.63468 -3.08301,6.79805 -8.61125,6.79805l-10.67674,0l0,-4.61974l10.63385,0c1.03966,0 1.77703,-0.12928 2.2391,-0.53337c0.37699,-0.33328 0.64745,-0.81727 0.64745,-1.40521c0,-0.62758 -0.2926,-1.12586 -0.66889,-1.42471c-0.41919,-0.32873 -0.99746,-0.47815 -1.95204,-0.47815c-5.12636,-0.16436 -11.54623,0.14942 -11.54623,-6.66812c0,-3.12487 2.09039,-6.4141 7.83722,-6.4141l10.9894,0l0,4.58531l-10.05557,0c-0.99677,0 -1.64492,0.03508 -2.19622,0.38915c-0.60041,0.34887 -0.82315,0.86665 -0.82315,1.55009c0,0.81273 0.5098,1.36559 1.19945,1.60466c0.57828,0.18905 1.19945,0.24427 2.13327,0.24427l2.95089,0.07471c2.97579,0.06821 5.01845,0.55156 6.26008,1.73265zm21.75197,-5.76726l-9.99055,0c-0.99746,0 -1.66014,0.03508 -2.21836,0.38915c-0.57828,0.34887 -0.80101,0.86665 -0.80101,1.55009c0,0.81272 0.48835,1.36558 1.19875,1.60466c0.57828,0.18905 1.19945,0.24427 2.11252,0.24427l2.97095,0.07471c2.99792,0.06952 4.99908,0.55351 6.21928,1.73395c0.22204,0.16436 0.35555,0.34887 0.50842,0.53337l0,-6.1302z"/>
    </g>
   </g>
  </g>
 </g>
</svg>