<?xml version="1.0" encoding="UTF-8" standalone="no"?>
<!-- Created with Inkscape (http://www.inkscape.org/) -->

<svg
   width="200"
   height="120"
   viewBox="0 0 52.916666 31.75"
   version="1.1"
   id="svg1"
   xml:space="preserve"
   xmlns="http://www.w3.org/2000/svg"
   xmlns:svg="http://www.w3.org/2000/svg"><defs
     id="defs1" /><g
     id="layer1"><path
       fill="#ffffff"
       d="m 51.680554,10.648778 c -0.381501,0.141928 -7.09686,1.961765 -7.215798,6.008298 -0.137572,4.680481 8.290726,6.336311 8.543244,6.377313 -0.04197,0.100926 -1.413339,2.267698 -4.60098,4.475472 -2.841558,1.942841 -5.806631,3.882528 -10.230529,3.882528 -4.423886,0 -5.525777,-1.245815 -10.632766,-1.245815 -4.97688,0 -6.784264,1.286817 -10.830826,1.286817 -4.04656,0 -6.8172052,-1.797759 -9.9986713,-4.005533 C 3.0301207,24.835301 0.11032842,20.807691 0.22268481,16.985088 0.40290002,10.853786 8.7217147,7.6020501 16.814839,7.6020501 c 4.300286,0 7.844707,1.3688201 10.544579,1.3688201 2.569765,0 6.619933,-1.4508226 11.512243,-1.4508226 1.854132,0 8.513582,0.082002 12.808893,3.1287304 z M 36.625411,4.9243359 c 2.057492,-1.1638121 3.536213,-2.7786406 3.583677,-4.39346955 0.0066,-0.2239315 -0.02575,-0.45101679 -0.104972,-0.63394646 -3.293663,0.05992514 -7.239593,1.06288517 -9.6402,2.39070371 -1.884167,1.0218838 -3.662148,2.6367123 -3.710261,4.2736187 -0.0072,0.2460092 0.07006,0.4920184 0.106827,0.5708675 0.207629,0.018926 0.545276,0.041002 0.883569,0.041002 2.953607,0 6.696555,-0.9588043 8.88136,-2.2487759 z"
       id="path1"
       style="stroke-width:0.0452976" /></g></svg>
