<svg width="200.00000000000003" height="120" xmlns="http://www.w3.org/2000/svg">

 <g>
  <title>Layer 1</title>
  <g stroke="null">
   <!-- Generator: Sketch 48.2 (47327) - http://www.bohemiancoding.com/sketch -->
   <desc stroke="null">Created with Sketch.</desc>

   <g stroke="null" fill-rule="evenodd" fill="none" id="svg_11">
    <g stroke="null" fill-rule="nonzero" id="svg_12">
     <rect stroke="null" rx="40" height="115.4952" width="197.99255" y="3.00241" x="1.00373" fill="#0079BE" id="svg_15"/>
     <path stroke="null" fill="#FFFFFF" id="svg_14" d="m155.42047,61.35012c0,-24.37802 -21.90614,-41.22842 -45.90655,-41.22031l-20.65516,0c-24.28789,-0.00811 -44.27922,16.84731 -44.27922,41.22031c0,22.2973 19.99134,40.61706 44.27922,40.51003l20.65516,0c24.00041,0.10687 45.90655,-18.21759 45.90655,-40.51003z"/>
     <path stroke="null" fill="#0079BE" id="Shape-path" d="m88.98642,23.58332c-22.19362,0.00649 -40.17781,16.74985 -40.18304,37.4145c0.00523,20.66107 17.98924,37.40282 40.18304,37.40931c22.19885,-0.00649 40.1867,-16.74823 40.18983,-37.40931c-0.00331,-20.66464 -17.99098,-37.40801 -40.18983,-37.4145z"/>
     <path stroke="null" fill="#FFFFFF" id="svg_13" d="m63.58682,60.89658c0.02091,-10.09791 6.79678,-18.70879 16.35164,-22.1306l0,44.25601c-9.55486,-3.41986 -16.3309,-12.02603 -16.35164,-22.12541zm34.5827,22.1366l0,-44.2672c9.55835,3.41354 16.34467,12.02928 16.36209,22.13206c-0.01742,10.10586 -6.80374,18.71511 -16.36209,22.13514z"/>
    </g>
   </g>
  </g>
 </g>
</svg>