<svg width="200.00000000000003" height="120" xmlns="http://www.w3.org/2000/svg">

 <g>
  <title>Layer 1</title>
  <g stroke="null">
   <!-- Generator: Sketch 48.2 (47327) - http://www.bohemiancoding.com/sketch -->
   <desc stroke="null">Created with Sketch.</desc>

   <g stroke="null" fill-rule="evenodd" fill="none" id="svg_19">
    <g stroke="null" fill-rule="nonzero" id="svg_20">
     <path stroke="null" fill="#4D4D4D" id="svg_21" d="m14.96276,3.00241c-7.70791,0 -13.95903,5.67779 -13.95903,12.68001l0,90.13517c0,7.00354 6.24912,12.68001 13.95903,12.68001l170.07449,0c7.70791,0 13.95903,-5.6778 13.95903,-12.68001l0,-40.905l0,-49.23017c0,-7.00354 -6.24912,-12.68001 -13.95903,-12.68001l-170.07449,0z"/>
     <path stroke="null" fill="#FFFFFF" id="Shape" d="m84.04697,40.3234c2.24304,0 4.12432,0.42483 6.41384,1.44966l0,5.416c-2.16869,-1.87187 -4.04999,-2.65523 -6.53778,-2.65523c-4.88987,0 -8.73555,3.57413 -8.73555,8.10563c0,4.7786 3.72666,8.14004 8.97798,8.14004c2.36387,0 4.21031,-0.74278 6.29535,-2.58456l0,5.41879c-2.3711,0.98563 -4.29267,1.3748 -6.53778,1.3748c-7.93946,0 -14.10875,-5.37883 -14.10875,-12.3156c0,-6.862 6.33351,-12.34954 14.2327,-12.34954zm-24.65091,0.14924c2.93073,0 5.61244,0.88565 7.85456,2.6171l-2.72825,3.15364c-1.35822,-1.34395 -2.6427,-1.91087 -4.20467,-1.91087c-2.24728,0 -3.8839,1.12952 -3.8839,2.61571c0,1.27466 0.91881,1.94929 4.0475,2.97138c5.93085,1.91472 7.68847,3.61254 7.68847,7.36174c0,4.56889 -3.80132,7.74903 -9.21943,7.74903c-3.96746,0 -6.85184,-1.37939 -9.25413,-4.49218l3.3678,-2.86398c1.20094,2.04966 3.20403,3.14759 5.69099,3.14759c2.32597,0 4.048,-1.41693 4.048,-3.32892c0,-0.9911 -0.52159,-1.84097 -1.56318,-2.44183c-0.52441,-0.28447 -1.56313,-0.70862 -3.60428,-1.34412c-4.8969,-1.55639 -6.57695,-3.22001 -6.57695,-6.47139c0,-3.86226 3.60795,-6.76291 8.33744,-6.76291zm59.5812,0.41147l5.69546,0l7.12874,15.85187l7.22046,-15.85187l5.65233,0l-11.54808,24.20578l-2.80559,0l-11.34332,-24.20578zm-100.86138,0.03626l7.65327,0c8.45571,0 14.3502,4.8517 14.3502,11.81673c0,3.47294 -1.80326,6.83084 -4.85264,9.05921c-2.56597,1.88099 -5.4896,2.7245 -9.53771,2.7245l-7.61312,0l0,-23.60044zm24.40252,0l5.21406,0l0,23.60044l-5.21406,0l0,-23.60044zm104.51325,0l14.78648,0l0,3.99889l-9.57638,0l0,5.23839l9.22339,0l0,3.99702l-9.22339,0l0,6.3705l9.57638,0l0,3.99563l-14.78648,0l0,-23.60044zm18.24004,0l7.73061,0c6.01346,0 9.45938,2.5495 9.45938,6.96795c0,3.61335 -2.16122,5.98466 -6.08861,6.69038l8.41429,9.94212l-6.41185,0l-7.2165,-9.48091l-0.67971,0l0,9.48091l-5.20762,0l0,-23.60044zm5.20762,3.71714l0,7.14741l1.52352,0c3.32945,0 5.09408,-1.27636 5.09408,-3.64879c0,-2.29675 -1.76495,-3.49862 -5.01179,-3.49862l-1.60581,0zm-147.15334,0.28175l0,15.60592l1.39908,0c3.36921,0 5.497,-0.56988 7.13519,-1.87554c1.80321,-1.41781 2.88789,-3.68165 2.88789,-5.94648c0,-2.2612 -1.08467,-4.45755 -2.88789,-5.87535c-1.72214,-1.37586 -3.76598,-1.90855 -7.13519,-1.90855l-1.39908,0z"/>
     <path stroke="null" fill="#F47216" id="Shape" d="m106.37914,40.16671c7.85375,0 14.2203,5.43588 14.2203,12.15097l0,0.00765c0,6.71509 -6.36656,12.15862 -14.2203,12.15862c-7.85375,0 -14.2203,-5.44353 -14.2203,-12.15862l0,-0.00765c0,-6.71509 6.36656,-12.15097 14.2203,-12.15097zm92.61255,29.31139c-6.61241,4.2258 -56.11744,34.42714 -141.83219,49.01585l127.87316,0c7.70791,0 13.95903,-5.6778 13.95903,-12.68001l0,-36.33584z"/>
    </g>
   </g>
  </g>
 </g>
</svg>