<svg width="200.00000000000003" height="120" xmlns="http://www.w3.org/2000/svg">
 <defs>
  <linearGradient id="svg_29" y2="49.9998574%" x2="99.9743153%" y1="49.9998574%" x1="0.031607858%">
   <stop offset="0%" stop-color="#007B40"/>
   <stop offset="100%" stop-color="#55B330"/>
  </linearGradient>
  <linearGradient id="svg_27" y2="49.999826%" x2="99.9860086%" y1="49.999826%" x1="0.471693172%">
   <stop offset="0%" stop-color="#1D2970"/>
   <stop offset="100%" stop-color="#006DBA"/>
  </linearGradient>
  <linearGradient id="svg_25" y2="50.0008964%" x2="99.9860003%" y1="50.0008964%" x1="0.113880772%">
   <stop offset="0%" stop-color="#6E2B2F"/>
   <stop offset="100%" stop-color="#E30138"/>
  </linearGradient>
 </defs>
 <g>
  <title>Layer 1</title>
  <g stroke="null">
   <!-- Generator: Sketch 48.2 (47327) - http://www.bohemiancoding.com/sketch -->
   <desc stroke="null">Created with Sketch.</desc>

   <g stroke="null" fill-rule="evenodd" fill="none" id="svg_22">
    <g stroke="null" fill-rule="nonzero" id="svg_23">
     <rect stroke="null" rx="40" height="115.4952" width="200.99258" y="1.5024" x="1.00373" fill="#0E4C96" id="svg_31"/>
     <path stroke="null" fill="#FFFFFF" id="svg_30" d="m166.4188,86.53391c0,10.20443 -9.03885,18.47916 -20.19565,18.47916l-109.6419,0l0,-73.04423c0,-10.20728 9.04012,-18.4818 20.19704,-18.4818l109.64051,-0.00011l-0.00012,73.04698l0.00012,0z"/>
     <path stroke="null" fill="url(#svg_29)" id="svg_28" d="m130.67312,60.85486c3.13115,0.06216 6.28097,-0.12653 9.40032,0.0981c3.15886,0.53966 3.92014,4.9148 1.11386,6.34798c-1.91388,0.94397 -4.18945,0.35119 -6.26534,0.51831l-4.24884,0l0,-6.96439zm11.21082,-7.88219c0.69588,2.24718 -1.6717,4.26465 -4.03751,3.9553l-7.1733,0c0.04955,-2.11916 -0.09849,-4.41913 0.07294,-6.42676c2.8739,0.07399 5.77479,-0.151 8.63178,0.11775c1.22777,0.28192 2.25475,1.20543 2.50609,2.35371zm17.26622,-33.32521c0.13331,4.29152 0.01904,8.80962 0.05713,13.18827c-0.00923,17.80151 0.01939,35.60341 -0.01466,53.40466c-0.12555,6.67157 -6.58783,12.46769 -13.82833,12.60084c-7.24801,0.0274 -14.49678,0.00391 -21.74508,0.01172l0,-26.9124c7.89756,-0.03764 15.80033,0.07545 23.69465,-0.05682c3.66267,-0.21059 7.67323,-2.4217 7.84401,-6.10928c0.43157,-3.70318 -3.38502,-6.26523 -7.00853,-6.6702c-1.3931,-0.03314 -1.35173,-0.37146 0,-0.51904c3.45492,-0.68328 6.16902,-3.95606 5.15229,-7.23347c-0.86729,-3.44717 -5.03096,-4.78136 -8.49433,-4.7749c-7.06203,-0.04393 -14.12551,-0.00623 -21.18809,-0.0188c0.04588,-5.02409 -0.095,-10.05384 0.07646,-15.07415c0.55947,-6.5511 7.18371,-11.95359 14.32328,-11.83635c7.04369,-0.00007 14.0877,0.00014 21.13119,-0.00011z"/>
     <path stroke="null" fill="url(#svg_27)" id="svg_26" d="m43.81259,32.16392c0.18043,-6.66092 6.66979,-12.41058 13.90182,-12.5078c7.22091,-0.02025 14.44236,-0.00285 21.66348,-0.00866c-0.01984,22.28622 0.03972,44.5739 -0.02985,66.85921c-0.27817,6.57994 -6.69701,12.21979 -13.84944,12.33593c-7.23475,0.0242 -14.47015,0.00338 -21.70515,0.01035l0,-27.82027c7.0274,1.519 14.397,2.16563 21.56608,1.15774c4.28572,-0.63139 8.97432,-2.55615 10.42531,-6.62434c1.06817,-3.47989 0.46669,-7.14206 0.62543,-10.71362l0,-8.2943l-12.40708,0c-0.05578,5.48556 0.11417,10.98085 -0.0898,16.46005c-0.33453,3.36778 -3.97858,5.50745 -7.45005,5.39338c-4.30571,0.04137 -12.83643,-2.85428 -12.83643,-2.85428c-0.02146,-10.27858 0.12509,-23.1499 0.18568,-33.39339z"/>
     <path stroke="null" fill="url(#svg_25)" id="svg_24" d="m84.00563,49.90497c-0.65234,0.12683 -0.13154,-2.03543 -0.29846,-2.85579c0.04447,-5.18633 -0.09279,-10.37814 0.07595,-15.56074c0.55818,-6.57875 7.23347,-11.99476 14.40153,-11.84087l21.10846,0c-0.0198,22.28608 0.03964,44.57361 -0.02979,66.85879c-0.27844,6.58006 -6.69763,12.21973 -13.85008,12.33625c-7.23506,0.02445 -14.47076,0.00348 -21.70607,0.01046l0,-30.47928c4.94177,3.70963 11.65742,4.28745 17.81374,4.29756c4.6408,-0.00148 9.25475,-0.6561 13.76134,-1.6357l0,-5.58414c-5.07935,2.31636 -11.05012,3.78744 -16.68061,2.45646c-3.92758,-0.89517 -6.7785,-4.36756 -6.71482,-8.07627c-0.45518,-3.85683 2.01639,-7.92903 6.15888,-9.07565c5.14291,-1.47331 10.74843,-0.34634 15.56918,1.56886c1.03288,0.49488 2.08076,1.10874 1.66738,-0.47099l0,-4.38923c-8.06236,-1.75509 -16.64259,-2.40111 -24.74318,-0.49159c-2.34444,0.60522 -4.62852,1.52302 -6.53345,2.93189z"/>
    </g>
   </g>
  </g>
 </g>
</svg>