<svg width="200.00000000000003" height="120" xmlns="http://www.w3.org/2000/svg">

 <g>
  <title>Layer 1</title>
  <g stroke="null">
   <!-- Generator: Sketch 48.2 (47327) - http://www.bohemiancoding.com/sketch -->
   <desc stroke="null">Created with Sketch.</desc>

   <g stroke="null" fill-rule="evenodd" fill="none" id="svg_32">
    <g stroke="null" fill-rule="nonzero" id="svg_33">
     <rect stroke="null" rx="40" height="119.99524" width="197.99255" y="0.00239" x="1.00373" fill="#000000" id="svg_56"/>
     <path stroke="null" fill="#D9222A" id="svg_55" d="m115.57762,60.00001c0,25.25802 -21.2171,45.73173 -47.38841,45.73173c-26.17131,0 -47.38622,-20.47371 -47.38622,-45.73173c0,-25.2559 21.2149,-45.73173 47.38622,-45.73173c26.17131,0 47.38841,20.47584 47.38841,45.73173"/>
     <path stroke="null" fill="#EE9F2D" id="svg_54" d="m131.80861,14.26827c-12.24364,0 -23.40052,4.48284 -31.8108,11.83817c-1.71264,1.49888 -3.31198,3.11771 -4.78482,4.83951l9.57404,0c1.30895,1.53603 2.51451,3.15168 3.61227,4.84376l-16.79857,0c-1.00646,1.55514 -1.92053,3.17079 -2.7301,4.8427l22.25766,0c0.76007,1.56894 1.43105,3.18352 2.00632,4.84163l-26.27031,0c-0.54778,1.57743 -1.00866,3.19202 -1.37715,4.8427l29.02351,0c0.69627,3.1209 1.06696,6.36068 1.06696,9.68327c0,5.07835 -0.85907,9.96457 -2.44301,14.52702l-26.27031,0c0.57418,1.65917 1.24515,3.27482 2.00522,4.8427l22.25876,0c-0.81177,1.67191 -1.72364,3.28755 -2.7312,4.84376l-16.79637,0c1.09666,1.68889 2.30441,3.30666 3.61227,4.83951l9.57184,0c-1.47064,1.72498 -3.07108,3.34594 -4.78592,4.84376c8.41029,7.35427 19.56606,11.83499 31.8097,11.83499c26.17131,0 47.38841,-20.47371 47.38841,-45.73173c0,-25.25484 -21.2171,-45.73173 -47.38841,-45.73173"/>
     <path stroke="null" fill="#000000" id="svg_53" d="m172.88106,85.49156c0,-0.81525 0.68418,-1.47765 1.53004,-1.47765c0.84587,0 1.53004,0.6624 1.53004,1.47765c0,0.81525 -0.68418,1.47765 -1.53004,1.47765c-0.84587,0 -1.53004,-0.6624 -1.53004,-1.47765zm1.53004,1.1231c0.64237,0 1.16376,-0.50316 1.16376,-1.1231c0,-0.62099 -0.52138,-1.12203 -1.16376,-1.12203c-0.64348,0 -1.16266,0.50104 -1.16266,1.12203c0,0.61993 0.51918,1.1231 1.16266,1.1231zm-0.20679,-0.47344l-0.31349,0l0,-1.29825l0.56758,0c0.1188,0 0.23979,0 0.34429,0.06475c0.1089,0.07112 0.17049,0.19638 0.17049,0.32589c0,0.14543 -0.0891,0.2813 -0.23319,0.33438l0.24749,0.57323l-0.34759,0l-0.20569,-0.51378l-0.22989,0l0,0.51378zm0,-0.7367l0.1738,0c0.0649,0 0.13309,0.00531 0.19139,-0.02548c0.0517,-0.03185 0.0781,-0.09129 0.0781,-0.14861c0,-0.04989 -0.0319,-0.10722 -0.0759,-0.13163c-0.055,-0.03291 -0.14189,-0.02548 -0.20019,-0.02548l-0.16719,0l0,0.3312z"/>
     <path stroke="null" fill="#000000" id="svg_52" d="m57.12472,65.00724c-0.54008,-0.06051 -0.77767,-0.07643 -1.14836,-0.07643c-2.91599,0 -4.39213,0.96493 -4.39213,2.87037c0,1.17511 0.72047,1.92243 1.84463,1.92243c2.09542,0 3.60566,-1.92562 3.69586,-4.71637zm3.74096,8.40625l-4.26234,0l0.0979,-1.95534c-1.30015,1.54559 -3.03478,2.28016 -5.392,2.28016c-2.7884,0 -4.70012,-2.10183 -4.70012,-5.15372c0,-4.59217 3.32517,-7.27147 9.03286,-7.27147c0.58298,0 1.33095,0.05095 2.09652,0.14543c0.15949,-0.62206 0.20129,-0.8885 0.20129,-1.22288c0,-1.25048 -0.89647,-1.71649 -3.29988,-1.71649c-2.51671,-0.0276 -4.59233,0.57853 -5.4448,0.84922c0.0539,-0.31315 0.71277,-4.24399 0.71277,-4.24399c2.564,-0.72502 4.25464,-0.99784 6.15757,-0.99784c4.41743,0 6.75704,1.91394 6.75265,5.53163c0.0088,0.96918 -0.1573,2.16552 -0.41689,3.73765c-0.44658,2.73344 -1.40465,8.58989 -1.53554,10.01765z"/>
     <polyline stroke="null" points="44.45649372874182,73.41348563823716 39.31199106685831,73.41348563823716 42.25877898765107,55.58085877592534 35.67882520850044,73.41348563823716 32.1732583335167,73.41348563823716 31.739876237334286,55.68276877754956 28.64239091833447,73.41348563823716 23.826772970959567,73.41348563823716 27.84932303433216,50.21589543997893 35.24654258156711,50.21589543997893 35.69532362097148,63.20051351340512 40.207357394036265,50.21589543997893 48.43504908781411,50.21589543997893 44.45649372874182,73.41348563823716 " fill="#000000" id="svg_51"/>
     <path stroke="null" fill="#000000" id="svg_50" d="m138.16637,65.00724c-0.53788,-0.06051 -0.77657,-0.07643 -1.14616,-0.07643c-2.91489,0 -4.39103,0.96493 -4.39103,2.87037c0,1.17511 0.71937,1.92243 1.84353,1.92243c2.09542,0 3.60676,-1.92562 3.69366,-4.71637zm3.74426,8.40625l-4.26234,0l0.0968,-1.95534c-1.30015,1.54559 -3.03589,2.28016 -5.3909,2.28016c-2.78949,0 -4.69902,-2.10183 -4.69902,-5.15372c0,-4.59217 3.32297,-7.27147 9.03176,-7.27147c0.58298,0 1.32985,0.05095 2.09432,0.14543c0.15949,-0.62206 0.20129,-0.8885 0.20129,-1.22288c0,-1.25048 -0.89537,-1.71649 -3.29878,-1.71649c-2.5167,-0.0276 -4.59013,0.57853 -5.44589,0.84922c0.0539,-0.31315 0.71497,-4.24399 0.71497,-4.24399c2.564,-0.72502 4.25354,-0.99784 6.15427,-0.99784c4.41963,0 6.75925,1.91394 6.75485,5.53163c0.0088,0.96918 -0.15729,2.16552 -0.41689,3.73765c-0.44438,2.73344 -1.40465,8.58989 -1.53444,10.01765z"/>
     <path stroke="null" fill="#000000" id="svg_49" d="m83.72942,73.12687c-1.40795,0.4278 -2.50571,0.61144 -3.69586,0.61144c-2.63,0 -4.06545,-1.45854 -4.06545,-4.14421c-0.0374,-0.8333 0.37838,-3.02642 0.70507,-5.02846c0.29699,-1.76214 2.23072,-12.87316 2.23072,-12.87316l5.11371,0l-0.59728,2.85551l3.08868,0l-0.69737,4.53379l-3.09968,0c-0.59398,3.58797 -1.43985,8.05701 -1.44975,8.64934c0,0.97236 0.53788,1.39697 1.76104,1.39697c0.58628,0 1.04056,-0.05732 1.38705,-0.17834l-0.68087,4.17712"/>
     <path stroke="null" fill="#000000" id="svg_48" d="m99.40823,72.97401c-1.75663,0.51803 -3.45167,0.76855 -5.2479,0.7643c-5.72419,-0.00531 -8.70837,-2.89054 -8.70837,-8.4158c0,-6.44879 3.79596,-11.19595 8.94926,-11.19595c4.21614,0 6.90884,2.65807 6.90884,6.82669c0,1.38317 -0.18479,2.73344 -0.63028,4.63994l-10.18342,0c-0.34429,2.73662 1.47064,3.8767 4.44493,3.8767c1.83033,0 3.48137,-0.3641 5.3172,-1.18785l-0.85027,4.69196zm-2.87419,-11.18427c0.0286,-0.39277 0.54228,-3.36717 -2.37921,-3.36717c-1.62904,0 -2.79389,1.19847 -3.26798,3.36717l5.64719,0z"/>
     <path stroke="null" fill="#000000" id="svg_47" d="m63.95106,60.51166c0,2.38632 1.19896,4.03169 3.91805,5.26731c2.08332,0.94476 2.40561,1.22501 2.40561,2.08166c0,1.17617 -0.91847,1.70694 -2.95449,1.70694c-1.53444,0 -2.96219,-0.23142 -4.60883,-0.74413c0,0 -0.67647,4.15801 -0.70727,4.35652c1.16926,0.24628 2.21202,0.4745 5.3535,0.55837c5.4283,0 7.9351,-1.99461 7.9351,-6.30548c0,-2.59225 -1.04936,-4.11342 -3.62656,-5.25669c-2.15702,-0.95538 -2.40451,-1.16874 -2.40451,-2.04981c0,-1.02013 0.85467,-1.54028 2.51781,-1.54028c1.00976,0 2.38911,0.10403 3.69586,0.28343l0.73257,-4.37562c-1.33205,-0.20381 -3.35157,-0.36729 -4.52743,-0.36729c-5.75498,0 -7.74701,2.90116 -7.72941,6.3851"/>
     <path stroke="null" fill="#000000" id="svg_46" d="m124.42789,54.6223c1.42885,0 2.7609,0.36198 4.59673,1.25366l0.84147,-5.03483c-0.75347,-0.28555 -3.40657,-1.96171 -5.65379,-1.96171c-3.44287,0 -6.35336,1.64855 -8.40039,4.36925c-2.98529,-0.95431 -4.21284,0.97448 -5.71758,2.89585l-1.33645,0.30041c0.1012,-0.63267 0.19249,-1.2611 0.16169,-1.89695l-4.72432,0c-0.64568,5.83841 -1.78963,11.75219 -2.685,17.59803l-0.23319,1.26747l5.14671,0c0.85907,-5.3862 1.32985,-8.83511 1.61584,-11.16941l1.93813,-1.0403c0.28929,-1.03924 1.19566,-1.3906 3.01389,-1.34814c-0.23759,1.23138 -0.36519,2.52644 -0.36519,3.86821c0,6.17173 3.45057,10.01446 8.98886,10.01446c1.42664,0 2.6509,-0.18152 4.54613,-0.67725l0.90527,-5.28854c-1.70494,0.80995 -3.10408,1.19104 -4.37124,1.19104c-2.99079,0 -4.80022,-2.13049 -4.80022,-5.65158c0,-5.10808 2.6916,-8.68968 6.53265,-8.68968"/>
     <polyline stroke="null" points="45.93703901955833,72.03562176876689 40.79143370155835,72.03562176876689 43.74042374771666,54.2051202260001 37.160469968566034,72.03562176876689 33.65380043746582,72.03562176876689 33.220421528150794,54.30702403135742 30.12293620915098,72.03562176876689 25.307318261776075,72.03562176876689 29.329868325148666,48.841213353559304 36.72708787238362,48.841213353559304 36.934979979614766,63.20051351340512 41.92549320927874,48.841213353559304 49.91559119176323,48.841213353559304 45.93703901955833,72.03562176876689 " fill="#FFFFFF" id="svg_45"/>
     <path stroke="null" fill="#000000" id="svg_44" d="m167.98295,50.21589l-1.14066,6.7025c-1.40685,-1.78655 -2.91819,-3.0795 -4.91352,-3.0795c-2.5959,0 -4.95861,1.89907 -6.50516,4.69408c-2.15372,-0.43098 -4.38113,-1.16237 -4.38113,-1.16237l-0.0011,0.01698c0.1738,-1.56257 0.24309,-2.51582 0.22769,-2.83959l-4.72542,0c-0.64348,5.83841 -1.78743,11.75219 -2.6817,17.59803l-0.23539,1.26747l5.14561,0c0.69517,-4.35545 1.22755,-7.97208 1.61914,-10.84033c1.75774,-1.53285 2.6377,-2.87038 4.41414,-2.78121c-0.78647,1.83538 -1.24735,3.94995 -1.24735,6.11865c0,4.71637 2.47271,7.82772 6.21257,7.82772c1.88533,0 3.33177,-0.62736 4.74302,-2.08166l-0.24089,1.75365l4.86622,0l3.91805,-23.19441l-5.07411,0zm-6.43366,18.8379c-1.75113,0 -2.6355,-1.25048 -2.6355,-3.71854c0,-3.70792 1.65544,-6.33733 3.98955,-6.33733c1.76763,0 2.7246,1.30037 2.7246,3.69624c0,3.73977 -1.68184,6.35962 -4.07865,6.35962z"/>
     <path stroke="null" fill="#FFFFFF" id="svg_43" d="m58.60417,63.63256c-0.53898,-0.06051 -0.77767,-0.07643 -1.14726,-0.07643c-2.91599,0 -4.39103,0.96493 -4.39103,2.87038c0,1.17299 0.72047,1.92243 1.84243,1.92243c2.09762,0 3.60786,-1.92561 3.69586,-4.71637zm3.74316,8.40307l-4.26234,0l0.0968,-1.95215c-1.29905,1.5424 -3.03589,2.28016 -5.3909,2.28016c-2.7895,0 -4.70012,-2.10183 -4.70012,-5.15372c0,-4.5943 3.32407,-7.27147 9.03286,-7.27147c0.58298,0 1.33095,0.05095 2.09542,0.14543c0.15949,-0.62206 0.20129,-0.8885 0.20129,-1.22501c0,-1.25048 -0.89537,-1.71437 -3.29877,-1.71437c-2.51781,-0.0276 -4.59233,0.57853 -5.4459,0.84604c0.0539,-0.31209 0.71277,-4.23869 0.71277,-4.23869c2.56291,-0.72821 4.25574,-1.00102 6.15647,-1.00102c4.41853,0 6.75924,1.915 6.75484,5.52951c0.0077,0.97342 -0.15949,2.1687 -0.41798,3.73871c-0.44548,2.73238 -1.40465,8.59202 -1.53444,10.01659z"/>
     <path stroke="null" fill="#FFFFFF" id="svg_42" d="m131.34772,49.46539l-0.84257,5.03589c-1.83473,-0.89062 -3.16788,-1.25367 -4.59563,-1.25367c-3.84106,0 -6.53375,3.5816 -6.53375,8.68968c0,3.52109 1.81053,5.65052 4.80022,5.65052c1.26715,0 2.6652,-0.38003 4.37013,-1.19104l-0.90307,5.28641c-1.89633,0.49892 -3.11948,0.68044 -4.54723,0.68044c-5.53719,0 -8.98886,-3.84274 -8.98886,-10.01447c0,-8.29266 4.76722,-14.08861 11.58586,-14.08861c2.24611,0 4.90032,0.91929 5.65489,1.20484"/>
     <path stroke="null" fill="#FFFFFF" id="svg_41" d="m139.64801,63.63256c-0.53898,-0.06051 -0.77657,-0.07643 -1.14726,-0.07643c-2.91489,0 -4.39104,0.96493 -4.39104,2.87038c0,1.17299 0.72047,1.92243 1.84353,1.92243c2.09542,0 3.60676,-1.92561 3.69476,-4.71637zm3.74316,8.40307l-4.26344,0l0.0979,-1.95215c-1.30015,1.5424 -3.03589,2.28016 -5.3909,2.28016c-2.7884,0 -4.70012,-2.10183 -4.70012,-5.15372c0,-4.5943 3.32517,-7.27147 9.03176,-7.27147c0.58408,0 1.33095,0.05095 2.09652,0.14543c0.15839,-0.62206 0.20129,-0.8885 0.20129,-1.22501c0,-1.25048 -0.89537,-1.71437 -3.29878,-1.71437c-2.5167,-0.0276 -4.59233,0.57853 -5.44589,0.84604c0.0539,-0.31209 0.71387,-4.23869 0.71387,-4.23869c2.56291,-0.72821 4.25464,-1.00102 6.15537,-1.00102c4.41963,0 6.75925,1.915 6.75374,5.52951c0.0088,0.97342 -0.15729,2.1687 -0.41688,3.73871c-0.44439,2.73238 -1.40575,8.59202 -1.53444,10.01659z"/>
     <path stroke="null" fill="#FFFFFF" id="svg_40" d="m85.20996,71.75007c-1.40905,0.4278 -2.5068,0.61357 -3.69586,0.61357c-2.63,0 -4.06545,-1.45854 -4.06545,-4.14421c-0.0363,-0.83542 0.37949,-3.02642 0.70617,-5.02846c0.29589,-1.76426 2.22962,-12.87422 2.22962,-12.87422l5.11261,0l-0.59618,2.85657l2.6245,0l-0.69847,4.53167l-2.6333,0c-0.59398,3.59009 -1.44205,8.05594 -1.45084,8.64934c0,0.97554 0.53898,1.39697 1.76103,1.39697c0.58628,0 1.03946,-0.0552 1.38705,-0.17621l-0.68088,4.17499"/>
     <path stroke="null" fill="#FFFFFF" id="svg_39" d="m100.88877,71.59933c-1.75553,0.51803 -3.45277,0.76749 -5.2479,0.7643c-5.72418,-0.00531 -8.70837,-2.89055 -8.70837,-8.4158c0,-6.45091 3.79596,-11.19701 8.94926,-11.19701c4.21614,0 6.90884,2.65701 6.90884,6.82775c0,1.38424 -0.18479,2.7345 -0.62918,4.63994l-10.18342,0c-0.34429,2.73662 1.47064,3.87777 4.44493,3.87777c1.82923,0 3.48137,-0.36517 5.3161,-1.19104l-0.85027,4.69408zm-2.87529,-11.18745c0.0308,-0.3917 0.54338,-3.36717 -2.37921,-3.36717c-1.62794,0 -2.7928,1.20165 -3.26688,3.36717l5.64609,0z"/>
     <path stroke="null" fill="#FFFFFF" id="svg_38" d="m65.43161,59.13698c0,2.38632 1.19895,4.02957 3.91805,5.26731c2.08332,0.94476 2.40561,1.22607 2.40561,2.08166c0,1.17618 -0.91956,1.70694 -2.95339,1.70694c-1.53554,0 -2.96329,-0.23141 -4.61103,-0.74413c0,0 -0.67427,4.15801 -0.70507,4.35652c1.16706,0.24628 2.21092,0.47132 5.3524,0.55837c5.4294,0 7.9351,-1.99461 7.9351,-6.30442c0,-2.59331 -1.04826,-4.11449 -3.62656,-5.25775c-2.15592,-0.9575 -2.40561,-1.16768 -2.40561,-2.04981c0,-1.01907 0.85687,-1.54346 2.5189,-1.54346c1.00866,0 2.38801,0.10721 3.69696,0.28661l0.73147,-4.37669c-1.33095,-0.20381 -3.35047,-0.36729 -4.52633,-0.36729c-5.75608,0 -7.74701,2.89904 -7.73051,6.38616"/>
     <path stroke="null" fill="#FFFFFF" id="svg_37" d="m170.61955,72.03562l-4.86732,0l0.24199,-1.75577c-1.41125,1.45642 -2.85769,2.08378 -4.74302,2.08378c-3.73986,0 -6.21147,-3.11134 -6.21147,-7.82772c0,-6.2747 3.83335,-11.5643 8.37068,-11.5643c1.99532,0 3.50557,0.78659 4.91132,2.57208l1.14176,-6.70249l5.07411,0l-3.91805,23.19441zm-7.58861,-4.35864c2.39571,0 4.07865,-2.61985 4.07865,-6.3575c0,-2.39587 -0.95806,-3.69625 -2.7257,-3.69625c-2.33301,0 -3.99065,2.62835 -3.99065,6.33733c0,2.46806 0.88657,3.71641 2.6377,3.71641z"/>
     <path stroke="null" fill="#FFFFFF" id="svg_36" d="m148.0253,53.17331c-0.64458,5.83841 -1.78854,11.75219 -2.6828,17.59484l-0.23539,1.26747l5.14561,0c1.84023,-11.53457 2.28571,-13.78714 5.1709,-13.50477c0.45978,-2.36084 1.31555,-4.4287 1.95353,-5.47218c-2.15482,-0.4331 -3.35817,0.74201 -4.93331,2.9744c0.1243,-0.96493 0.35199,-1.90226 0.30689,-2.85976l-4.72542,0"/>
     <path stroke="null" fill="#FFFFFF" id="svg_35" d="m105.67579,53.17331c-0.64567,5.83841 -1.78963,11.75219 -2.6839,17.59484l-0.23429,1.26747l5.14781,0c1.83803,-11.53457 2.28242,-13.78714 5.16651,-13.50477c0.46198,-2.36084 1.31775,-4.4287 1.95353,-5.47218c-2.15262,-0.4331 -3.35707,0.74201 -4.93112,2.9744c0.12429,-0.96493 0.34979,-1.90226 0.30689,-2.85976l-4.72542,0"/>
     <path stroke="null" fill="#FFFFFF" id="svg_34" d="m172.87886,70.55903c0,-0.81844 0.68527,-1.47765 1.53004,-1.47765c0.84587,0 1.53004,0.65921 1.53004,1.47765c0,0.81419 -0.68417,1.47659 -1.53004,1.47659c-0.84477,0 -1.53004,-0.66239 -1.53004,-1.47659zm1.53004,1.12204c0.64348,0 1.16266,-0.50316 1.16266,-1.12204c0,-0.61993 -0.51918,-1.1231 -1.16266,-1.1231c-0.64237,0 -1.16376,0.50316 -1.16376,1.1231c0,0.61887 0.52138,1.12204 1.16376,1.12204zm-0.20679,-0.47663l-0.31349,0l0,-1.29507l0.56868,0c0.11769,0 0.23979,0.00212 0.34209,0.06475c0.10999,0.07218 0.17269,0.19532 0.17269,0.32483c0,0.14649 -0.0891,0.28343 -0.23429,0.33544l0.24859,0.57004l-0.34869,0l-0.20569,-0.51166l-0.22989,0l0,0.51166zm0,-0.73352l0.17269,0c0.0649,0 0.13529,0.00425 0.19249,-0.02548c0.0517,-0.03185 0.0781,-0.09235 0.0781,-0.14968c0,-0.04777 -0.0308,-0.10509 -0.0759,-0.13375c-0.0539,-0.02972 -0.14299,-0.02123 -0.20129,-0.02123l-0.16609,0l0,0.33013z"/>
    </g>
   </g>
  </g>
 </g>
</svg>