<svg width="200.00000000000003" height="120" xmlns="http://www.w3.org/2000/svg">

 <g>
  <title>Layer 1</title>
  <g stroke="null">
   <g stroke="null" transform="translate(40 0) scale(0.234375 0.234375)">
    <path stroke="null" fill="#FFFFFF" d="m665.71275,465.91505c0,23.98767 -21.68011,43.43352 -48.42424,43.43352l-722.35561,0c-26.74413,0.00144 -48.42424,-19.44585 -48.42424,-43.43352l0,-419.833c0,-23.98767 21.68011,-43.43209 48.42424,-43.43209l722.35561,0c26.74573,0 48.42424,19.44585 48.42424,43.43209l0,419.833l0,0z"/>
    <path stroke="null" fill="#F79F1A" d="m28.33356,258.92023l-19.2353,-82.75861c-3.28802,-11.41265 -12.85606,-14.80789 -24.81132,-15.25705l-88.18924,0l-0.7856,3.78126c68.68674,14.93418 114.13497,50.9616 133.02147,94.2344z"/>
    <g stroke="null">
     <polygon stroke="null" fill="#059BBF" points="232.67698311335698,162.5691680908203 175.69589349959278,162.5691680908203 140.10850010051763,349.8770751953125 196.9951886436902,349.8770751953125 "/>
     <path stroke="null" fill="#059BBF" d="m63.06173,349.68908l89.61645,-186.99217l-60.3059,0l-55.74908,127.75629l-5.95043,-19.28944c-10.92805,-23.20559 -42.16021,-56.6055 -78.82599,-77.63131l50.96026,156.21977l60.2547,-0.06314z"/>
     <path stroke="null" fill="#059BBF" d="m395.20099,288.64652c0.2112,-21.26545 -15.01288,-37.4854 -47.81944,-50.88267c-19.9377,-8.65313 -32.08976,-14.42331 -31.94416,-23.20415c0,-7.75768 10.29125,-16.0908 32.58896,-16.0908c18.65769,-0.25687 32.09136,3.39667 42.59861,7.17937l5.14883,2.11664l7.72164,-40.57785c-11.29446,-3.78413 -28.95054,-7.82225 -51.03226,-7.82225c-56.25148,0 -95.84688,25.38681 -96.20528,61.79738c-0.3584,26.92514 28.30734,41.92533 49.88985,50.89846c22.15531,9.14677 29.58895,15.00019 29.44655,23.20559c-0.1424,12.54631 -17.65609,18.26771 -34.02257,18.26771c-22.80011,0 -34.88017,-2.8198 -53.61467,-9.81979l-7.28004,-2.99918l-7.99684,41.97268c13.28487,5.20766 37.86899,9.75952 63.38912,9.94894c59.8195,0 98.70289,-25.06393 99.1317,-63.99008z"/>
     <path stroke="null" fill="#059BBF" d="m462.88453,321.80248c6.50403,0 64.61152,0.06458 72.90596,0.06458c1.71521,6.52213 6.93283,28.07602 6.93283,28.07602l52.81786,0l-46.10103,-187.18016l-43.95542,0c-13.65287,0 -23.79852,3.33353 -29.80495,15.51105l-84.55242,171.66911l59.8275,0c-0.0048,0 9.71365,-23.07357 11.92966,-28.1406zm39.0226,-90.70714c-0.2816,0.5123 4.72002,-10.83291 7.57924,-17.88456l3.85762,16.1525c0,0 10.86725,44.74656 13.15207,54.10571l-47.24504,0c4.71842,-10.76833 22.65611,-52.37365 22.65611,-52.37365z"/>
     <path stroke="null" fill="#059BBF" d="m617.2885,2.64996l-722.35561,0c-26.74413,0 -48.42424,19.44442 -48.42424,43.43209l0,45.07661l819.2041,0l0,-45.07661c0,-23.98767 -21.67851,-43.43209 -48.42424,-43.43209z"/>
    </g>
    <path stroke="null" fill="#F79F1A" d="m617.2885,509.35001l-722.35561,0c-26.74413,0 -48.42424,-19.44585 -48.42424,-43.43209l0,-45.07661l819.2041,0l0,45.07661c0,23.98623 -21.67851,43.43209 -48.42424,43.43209z"/>
    <path stroke="null" fill="#202121" opacity="0.15" d="m-119.06398,465.91505l0,-419.833c0,-23.98767 21.68171,-43.43209 48.42744,-43.43209l-34.43217,0c-26.74253,0 -48.42264,19.44442 -48.42264,43.43209l0,419.83443c0,23.98767 21.68011,43.43352 48.42424,43.43352l34.43217,0c-26.74573,0 -48.42904,-19.44729 -48.42904,-43.43496z"/>
   </g>
  </g>
 </g>
</svg>