<?xml version="1.0" encoding="UTF-8" standalone="no"?>
<!-- Created with Inkscape (http://www.inkscape.org/) -->

<svg
   width="200"
   height="120"
   viewBox="0 0 52.916666 31.75"
   version="1.1"
   id="svg1"
   xml:space="preserve"
   xmlns="http://www.w3.org/2000/svg"
   xmlns:svg="http://www.w3.org/2000/svg"><defs
     id="defs1" /><g
     id="layer1"><g
       id="g1"
       transform="matrix(0.26458333,0,0,0.26056221,9.4531225,-0.76955869)"><rect
         height="88"
         style="fill:url(#SVGID_1_)"
         width="96"
         x="16"
         y="32"
         id="rect5" /><rect
         height="60"
         style="fill:#bdbdbd"
         width="20"
         x="16"
         y="48"
         id="rect6" /><g
         id="g9"><linearGradient
           id="SVGID_2_"
           gradientUnits="userSpaceOnUse"
           x1="26"
           x2="26"
           y1="51.666698"
           y2="61.263"><stop
             offset="0"
             style="stop-color:#757575"
             id="stop6" /><stop
             offset="1"
             style="stop-color:#757575;stop-opacity:0"
             id="stop7" /></linearGradient><rect
           height="20"
           style="fill:url(#SVGID_2_)"
           width="20"
           x="16"
           y="48"
           id="rect7" /><linearGradient
           id="SVGID_3_"
           gradientTransform="rotate(180,174,82)"
           gradientUnits="userSpaceOnUse"
           x1="322"
           x2="322"
           y1="63.666698"
           y2="76.184402"><stop
             offset="0"
             style="stop-color:#757575"
             id="stop8" /><stop
             offset="1"
             style="stop-color:#757575;stop-opacity:0"
             id="stop9" /></linearGradient><polygon
           points="36,84 36,104 16,104 16,84 "
           style="fill:url(#SVGID_3_)"
           id="polygon9" /></g><g
         style="opacity:0.2"
         id="g10"><polygon
           points="21.67,48 21.67,104 24.67,104 24.67,48 "
           style="fill:#424242"
           id="polygon10" /></g><g
         style="opacity:0.2"
         id="g11"><polygon
           points="27.33,48 27.33,108.75 30.33,108.75 30.33,48 "
           style="fill:#424242"
           id="polygon11" /></g><g
         style="opacity:0.2"
         id="g12"><polygon
           points="16,48 16,104 19,104 19,48 "
           style="fill:#424242"
           id="polygon12" /></g><g
         style="opacity:0.2"
         id="g13"><polygon
           points="33,48 33,104 36,104 36,48 "
           style="fill:#424242"
           id="polygon13" /></g><g
         id="g17"><linearGradient
           id="SVGID_4_"
           gradientUnits="userSpaceOnUse"
           x1="26"
           x2="26"
           y1="48.166698"
           y2="38.831799"><stop
             offset="0"
             style="stop-color:#BDBDBD"
             id="stop13" /><stop
             offset="0.4136"
             style="stop-color:#A2A2A2"
             id="stop14" /><stop
             offset="0.9957"
             style="stop-color:#757575"
             id="stop15" /></linearGradient><path
           d="m 12,40 v 4 1 c 0,3.87 3.13,7 7,7 h 14 c 3.87,0 7,-3.13 7,-7 v -1 -4 z"
           style="fill:url(#SVGID_4_)"
           id="path15" /><g
           style="opacity:0.2"
           id="g16"><path
             d="m 37,43 v 1 1 c 0,2.21 -1.79,4 -4,4 H 19 c -2.21,0 -4,-1.79 -4,-4 v -1 -1 h 22 m 3,-3 H 12 v 4 1 c 0,3.87 3.13,7 7,7 h 14 c 3.87,0 7,-3.13 7,-7 v -1 z"
             style="fill:#424242"
             id="path16" /></g></g><g
         id="g21"><linearGradient
           id="SVGID_5_"
           gradientTransform="rotate(180,212,102)"
           gradientUnits="userSpaceOnUse"
           x1="398"
           x2="398"
           y1="101.3333"
           y2="93.324699"><stop
             offset="0"
             style="stop-color:#BDBDBD"
             id="stop17" /><stop
             offset="0.4136"
             style="stop-color:#A2A2A2"
             id="stop18" /><stop
             offset="0.9957"
             style="stop-color:#757575"
             id="stop19" /></linearGradient><path
           d="m 40,112 v -4 -1 c 0,-3.87 -3.13,-7 -7,-7 H 19 c -3.87,0 -7,3.13 -7,7 v 1 4 z"
           style="fill:url(#SVGID_5_)"
           id="path19" /><g
           style="opacity:0.2"
           id="g20"><path
             d="m 33,103 c 2.21,0 4,1.79 4,4 v 1 1 H 15 v -1 -1 c 0,-2.21 1.79,-4 4,-4 h 14 m 0,-3 H 19 c -3.87,0 -7,3.13 -7,7 v 1 4 h 28 v -4 -1 c 0,-3.87 -3.13,-7 -7,-7 z"
             style="fill:#424242"
             id="path20" /></g></g><rect
         height="60"
         style="fill:#bdbdbd"
         width="20"
         x="92"
         y="48"
         id="rect21" /><g
         id="g24"><linearGradient
           id="SVGID_6_"
           gradientUnits="userSpaceOnUse"
           x1="102"
           x2="102"
           y1="51.666698"
           y2="61.263"><stop
             offset="0"
             style="stop-color:#757575"
             id="stop21" /><stop
             offset="1"
             style="stop-color:#757575;stop-opacity:0"
             id="stop22" /></linearGradient><rect
           height="20"
           style="fill:url(#SVGID_6_)"
           width="20"
           x="92"
           y="48"
           id="rect22" /><linearGradient
           id="SVGID_7_"
           gradientTransform="rotate(180,174,82)"
           gradientUnits="userSpaceOnUse"
           x1="246"
           x2="246"
           y1="63.666698"
           y2="76.184402"><stop
             offset="0"
             style="stop-color:#757575"
             id="stop23" /><stop
             offset="1"
             style="stop-color:#757575;stop-opacity:0"
             id="stop24" /></linearGradient><polygon
           points="112,84 112,104 92,104 92,84 "
           style="fill:url(#SVGID_7_)"
           id="polygon24" /></g><g
         style="opacity:0.2"
         id="g25"><polygon
           points="97.67,48 97.67,104 100.67,104 100.67,48 "
           style="fill:#424242"
           id="polygon25" /></g><g
         style="opacity:0.2"
         id="g26"><polygon
           points="103.33,48 103.33,108.75 106.33,108.75 106.33,48 "
           style="fill:#424242"
           id="polygon26" /></g><g
         style="opacity:0.2"
         id="g27"><polygon
           points="92,48 92,104 95,104 95,48 "
           style="fill:#424242"
           id="polygon27" /></g><g
         style="opacity:0.2"
         id="g28"><polygon
           points="109,48 109,104 112,104 112,48 "
           style="fill:#424242"
           id="polygon28" /></g><g
         id="g32"><linearGradient
           id="SVGID_8_"
           gradientUnits="userSpaceOnUse"
           x1="102"
           x2="102"
           y1="48.166698"
           y2="38.831799"><stop
             offset="0"
             style="stop-color:#BDBDBD"
             id="stop28" /><stop
             offset="0.4136"
             style="stop-color:#A2A2A2"
             id="stop29" /><stop
             offset="0.9957"
             style="stop-color:#757575"
             id="stop30" /></linearGradient><path
           d="m 88,40 v 4 1 c 0,3.87 3.13,7 7,7 h 14 c 3.87,0 7,-3.13 7,-7 v -1 -4 z"
           style="fill:url(#SVGID_8_)"
           id="path30" /><g
           style="opacity:0.2"
           id="g31"><path
             d="m 113,43 v 1 1 c 0,2.21 -1.79,4 -4,4 H 95 c -2.21,0 -4,-1.79 -4,-4 v -1 -1 h 22 m 3,-3 H 88 v 4 1 c 0,3.87 3.13,7 7,7 h 14 c 3.87,0 7,-3.13 7,-7 v -1 z"
             style="fill:#424242"
             id="path31" /></g></g><g
         id="g36"><linearGradient
           id="SVGID_9_"
           gradientTransform="rotate(180,212,102)"
           gradientUnits="userSpaceOnUse"
           x1="322"
           x2="322"
           y1="101.3333"
           y2="93.324699"><stop
             offset="0"
             style="stop-color:#BDBDBD"
             id="stop32" /><stop
             offset="0.4136"
             style="stop-color:#A2A2A2"
             id="stop33" /><stop
             offset="0.9957"
             style="stop-color:#757575"
             id="stop34" /></linearGradient><path
           d="m 116,112 v -4 -1 c 0,-3.87 -3.13,-7 -7,-7 H 95 c -3.87,0 -7,3.13 -7,7 v 1 4 z"
           style="fill:url(#SVGID_9_)"
           id="path34" /><g
           style="opacity:0.2"
           id="g35"><path
             d="m 109,103 c 2.21,0 4,1.79 4,4 v 1 1 H 91 v -1 -1 c 0,-2.21 1.79,-4 4,-4 h 14 m 0,-3 H 95 c -3.87,0 -7,3.13 -7,7 v 1 4 h 28 v -4 -1 c 0,-3.87 -3.13,-7 -7,-7 z"
             style="fill:#424242"
             id="path35" /></g></g><path
         d="M 56.42,5.79 6.21,30.89 C 4.86,31.57 4,32.96 4,34.47 V 40 c 0,2.21 1.79,4 4,4 h 112 c 2.21,0 4,-1.79 4,-4 v -5.53 c 0,-1.52 -0.86,-2.9 -2.21,-3.58 L 71.58,5.79 C 69.22,4.61 66.63,4 64,4 v 0 c -2.63,0 -5.22,0.61 -7.58,1.79 z"
         style="fill:url(#SVGID_10_)"
         id="path41" /><path
         d="M 106.53,32.21 68,12.94 C 66.76,12.32 65.39,12 64,12 v 0 c -1.39,0 -2.76,0.32 -4,0.94 L 21.47,32.21 C 19.58,33.15 20.25,36 22.36,36 h 83.28 c 2.11,0 2.78,-2.85 0.89,-3.79 z"
         style="fill:url(#SVGID_11_);stroke:#afafaf;stroke-width:2;stroke-miterlimit:10"
         id="path44" /><g
         style="opacity:0.2"
         id="g45"><path
           d="m 64,7 c 2.15,0 4.31,0.51 6.24,1.47 l 50.21,25.11 c 0.34,0.17 0.55,0.51 0.55,0.89 V 40 c 0,0.55 -0.45,1 -1,1 H 8 C 7.45,41 7,40.55 7,40 V 34.47 C 7,34.09 7.21,33.75 7.55,33.58 L 57.76,8.47 C 59.69,7.51 61.85,7 64,7 M 64,4 C 61.37,4 58.78,4.61 56.42,5.79 L 6.21,30.89 C 4.86,31.57 4,32.96 4,34.47 V 40 c 0,2.21 1.79,4 4,4 h 112 c 2.21,0 4,-1.79 4,-4 v -5.53 c 0,-1.52 -0.86,-2.9 -2.21,-3.58 L 71.58,5.79 C 69.22,4.61 66.63,4 64,4 Z"
           style="fill:#424242"
           id="path45" /></g><path
         d="M 120,120 H 8 v -8 c 0,-2.21 1.79,-4 4,-4 h 104 c 2.21,0 4,1.79 4,4 z"
         style="fill:url(#SVGID_12_)"
         id="path47" /><path
         d="M 124,124 H 4 v -4 c 0,-2.21 1.79,-4 4,-4 h 112 c 2.21,0 4,1.79 4,4 z"
         style="fill:url(#SVGID_13_)"
         id="path50" /><g
         style="opacity:0.2"
         id="g51"><path
           d="m 116,111 c 0.55,0 1,0.45 1,1 v 4 3 h 3 c 0.55,0 1,0.45 1,1 v 1 H 7 v -1 c 0,-0.55 0.45,-1 1,-1 h 3 v -3 -4 c 0,-0.55 0.45,-1 1,-1 h 104 m 0,-3 H 12 c -2.21,0 -4,1.79 -4,4 v 4 c -2.21,0 -4,1.79 -4,4 v 4 h 120 v -4 c 0,-2.21 -1.79,-4 -4,-4 v -4 c 0,-2.21 -1.79,-4 -4,-4 z"
           style="fill:#424242"
           id="path51" /></g><g
         id="g56"><path
           d="M 55.11,88 H 72.89 C 73.5,88 74,87.55 74,87 v -0.54 c 0,-0.65 -0.45,-1.22 -1.12,-1.45 l -8.66,-1.88 c -0.25,-0.08 -0.53,-0.08 -0.78,0 L 55.1,85 C 54.44,85.23 54,85.8 54,86.44 V 87 c 0,0.55 0.5,1 1.11,1 z"
           style="fill:#757575"
           id="path52" /><g
           id="g55"><rect
             height="20"
             style="fill:#4fc3f7"
             width="16"
             x="56"
             y="88"
             id="rect52" /><g
             style="opacity:0.2"
             id="g54"><rect
               height="20"
               style="fill:#424242"
               width="2"
               x="56"
               y="88"
               id="rect53" /><rect
               height="20"
               style="fill:#424242"
               width="2"
               x="70"
               y="88"
               id="rect54" /></g></g></g><g
         id="g59"><path
           d="M 38.58,71.42 V 57.07 h 5.03 c 1.74,0 3.06,0.33 3.96,1 0.9,0.67 1.35,1.64 1.35,2.93 0,0.7 -0.18,1.32 -0.54,1.86 -0.36,0.54 -0.86,0.93 -1.51,1.18 0.74,0.18 1.32,0.56 1.74,1.11 0.42,0.56 0.64,1.24 0.64,2.05 0,1.38 -0.44,2.42 -1.32,3.13 -0.88,0.71 -2.14,1.07 -3.76,1.08 h -5.59 z m 2.95,-8.34 h 2.19 c 1.49,-0.03 2.24,-0.62 2.24,-1.78 0,-0.65 -0.19,-1.12 -0.57,-1.4 -0.38,-0.29 -0.97,-0.43 -1.79,-0.43 h -2.07 z m 0,2.09 v 3.87 h 2.53 c 0.7,0 1.24,-0.17 1.63,-0.5 0.39,-0.33 0.59,-0.79 0.59,-1.38 0,-1.31 -0.68,-1.98 -2.04,-2 h -2.71 z"
           style="fill:#bdbdbd"
           id="path56" /><path
           d="M 59.28,68.46 H 54.1 l -0.99,2.96 h -3.14 l 5.34,-14.35 h 2.74 l 5.37,14.35 h -3.14 z m -4.39,-2.39 h 3.59 l -1.8,-5.37 z"
           style="fill:#bdbdbd"
           id="path57" /><path
           d="m 76.42,71.42 h -2.96 l -5.75,-9.44 v 9.44 H 64.75 V 57.07 h 2.96 l 5.76,9.46 v -9.46 h 2.95 z"
           style="fill:#bdbdbd"
           id="path58" /><path
           d="m 83.5,65.66 -1.54,1.65 v 4.1 H 79 V 57.07 h 2.96 v 6.5 l 1.3,-1.78 3.66,-4.72 h 3.64 l -5.09,6.38 5.24,7.97 h -3.52 z"
           style="fill:#bdbdbd"
           id="path59" /></g></g></g></svg>
